<svg version="1.1" xmlns="http://www.w3.org/2000/svg" xmlns:xlink="http://www.w3.org/1999/xlink" x="0px" y="0px"
	 viewBox="0 0 366.6 384" style="enable-background:new 0 0 366.6 384;" xml:space="preserve">
	<g style="fill-rule:evenodd; clip-rule:evenodd;">
		<polygon fill="#2E97D9" points="184.8,321.4 305,265.3 244.9,236.8 184.8,264.8 	"/>
		<polygon fill="#1B81BF" points="305,265.3 184.8,321.4 184.8,378 365.1,293.9 	"/>
		<polygon fill="#40ACFF" points="184.8,321.4 64.6,265.3 64.6,264.3 64.6,119.5 4.5,91 4.5,293.9 184.8,378 	"/>
		<polygon fill="#6EC0FF" points="64.6,265.3 184.8,321.4 184.8,264.8 124.7,236.8 124.7,148.1 64.6,119.5 	"/>
		<polygon fill="#BDE2FF" points="64.6,119.1 184.8,63.1 185.3,62.9 305,119.1 365.1,91 184.8,7 4.5,91 64.6,119.5 	"/>
		<polygon fill="#D6EDFF" points="185.3,62.9 64.6,119.1 64.6,119.5 124.7,148.1 124.7,147.2 185.7,118.7 244.9,147.2 305,119.1 	"/>
	</g>
</svg>
