<svg xmlns="http://www.w3.org/2000/svg" xmlns:xlink="http://www.w3.org/1999/xlink" viewBox="0 0 68.84 104.44"><defs><style>.a{fill:#405194;}.b{fill:url(#a);}.c{fill:url(#b);}.d{fill:url(#c);}.e{fill:url(#d);}.f{fill:url(#e);}.g{fill:url(#f);}.h{fill:url(#g);}.i{fill:#6dfff8;opacity:0.3;}.j{fill:#fffff5;opacity:0.5;}</style><linearGradient id="a" x1="1296.15" y1="52.33" x2="1312.84" y2="52.33" gradientTransform="matrix(-1, 0, 0, 1, 1320, 0)" gradientUnits="userSpaceOnUse"><stop offset="0" stop-color="#6a6fb8"/><stop offset="1" stop-color="#4a3299"/></linearGradient><radialGradient id="b" cx="1310.73" cy="51" r="5.72" gradientTransform="matrix(-1, 0, 0, 1, 1320, 0)" gradientUnits="userSpaceOnUse"><stop offset="0" stop-color="#42def7"/><stop offset="1" stop-color="#1b3d71"/></radialGradient><linearGradient id="c" x1="1297.72" y1="62.25" x2="1280.13" y2="50.68" gradientTransform="matrix(-1, 0, 0, 1, 1320, 0)" gradientUnits="userSpaceOnUse"><stop offset="0" stop-color="#6a6fb8"/><stop offset="1" stop-color="#1b3d71"/></linearGradient><linearGradient id="d" x1="1281.83" y1="83.77" x2="1260.98" y2="63.28" gradientTransform="matrix(-1, 0, 0, 1, 1320, 0)" gradientUnits="userSpaceOnUse"><stop offset="0" stop-color="#f5b216"/><stop offset="1" stop-color="#f23b0a"/></linearGradient><linearGradient id="e" x1="1268.74" y1="93.24" x2="1251.75" y2="74.44" xlink:href="#c"/><linearGradient id="f" x1="1278.66" y1="84.26" x2="1261.68" y2="65.47" xlink:href="#c"/><linearGradient id="g" x1="1288" y1="75.82" x2="1271.02" y2="57.02" xlink:href="#c"/></defs><title>Ресурс 5</title><path class="a" d="M9.85,42.07c.25-.76,1.48-2,1.91-1.8s3.31,5.28,3.31,5.28l-1,.74s-2.16-4.23-2.37-4.63-1,.61-1,.61l-2,7.16H8.23L8.92,52,8,52.35l-.47-3S9.6,42.82,9.85,42.07Z"/><path class="a" d="M9.45,48.54S4.17,44.69,3,45s-3,7.41-3,7.41l.18,6.44H1.37l-.68-6.4.25.25s1.47-5.9,2.34-6.36,6.18,3.49,6.18,3.49Z"/><path class="b" d="M7.19,58.89S7.45,47.58,13,43.71s12.7,4.15,10.35,10C20.8,60.08,17,61.82,9.7,62,7.23,62,7,60.15,7.19,58.89Z"/><path class="c" d="M12.24,46.45c-1.64,0-3.19,1.23-4.38,4.67s-.75,7.76.84,7.52c2.19-.33,5-3.94,5.93-7.59S13.87,46.46,12.24,46.45Z"/><path class="d" d="M21.53,51.5a10.69,10.69,0,0,1,6.91-2.42c4,.15,10.21,6.55,9.54,11.35s-6.29,9.65-13.46,7.94S14.1,60.58,15.66,55.52C16.5,52.81,19.52,52.8,21.53,51.5Z"/><path class="a" d="M15.66,55.52c.84-2.71,3.86-2.72,5.86-4l.07-.06c-3.12,3.35-2.79,10.2,1.9,11.57,4.25,1.25,12.49-4.18,14.21-5.36A6.49,6.49,0,0,1,38,60.42c-.67,4.8-6.29,9.65-13.46,7.94S14.1,60.58,15.66,55.52Z"/><path class="a" d="M26.89,67.58,28,67c-.06,5.85,6.61,13,6.61,13,0,1.88-2.92,2.92-2.92,2.92C26.83,77.69,26.89,67.58,26.89,67.58Z"/><path class="a" d="M34,80.77S37,87.94,37.77,92.71c0,0-2,1.38-3.75.69,0,0-.3-10.11-1.83-11.91Z"/><path class="a" d="M37.05,92.62s1.2,5.7,2.49,7.2c0,0-1.53,1.32-2.91.66,0,0-1.11-6.3-1.23-8.43Z"/><path class="a" d="M38.61,99.94a29.28,29.28,0,0,0,1.56,4l-1.17.45a43.75,43.75,0,0,1-1.68-4.68Z"/><path class="a" d="M14.29,68.19a12.49,12.49,0,0,0,4.51.94c2.55,0,2-5.15,2-5.43L22,64s1.06,6.85-1.15,7.87-7.11.3-7.11.3C12,70.28,14.29,68.19,14.29,68.19Z"/><path class="a" d="M14.25,69l.3,1.7C11.74,71.81,12,79.86,12,79.86a3.36,3.36,0,0,1-3.19-1.74C10,69.64,14.25,69,14.25,69Z"/><path class="a" d="M9.78,78.62l1.28-.17c-.51,1.11-.72,7.75-.72,7.75a4.17,4.17,0,0,1-2.43-1.11Z"/><path class="a" d="M8.84,85.13h.85a5.91,5.91,0,0,1-1.75,3.75A1.12,1.12,0,0,1,7.06,88,5.91,5.91,0,0,0,8.84,85.13Z"/><path class="a" d="M24.45,67.15l1.06.32c-1.47,3.72,2.34,9.78,2.34,9.78C27.18,77.89,25,78,25,78,21.24,72,24.45,67.15,24.45,67.15Z"/><path class="a" d="M25.51,77.13H27S28.69,84,28.57,88.85a3.92,3.92,0,0,1-3.76,0S26.69,79.23,25.51,77.13Z"/><path class="a" d="M26.08,88.24l1.94.22s-.23,5.19.56,7.13a3.19,3.19,0,0,1-2.74.16A59.79,59.79,0,0,1,26.08,88.24Z"/><path class="a" d="M26.51,94.62l1.11.69a19.45,19.45,0,0,0,.59,4.2L27,99.66A42.81,42.81,0,0,1,26.51,94.62Z"/><path class="a" d="M62.9,84.32a41.19,41.19,0,0,1,3.18,3.27c-.09.14-2,2.14-2,2.14A44.8,44.8,0,0,1,61,84.79Z"/><path class="a" d="M64.71,87.73a43.76,43.76,0,0,0,4.14,2.95l-.43,1.14a31,31,0,0,1-4.74-3.52Z"/><path class="e" d="M31.71,62s-6,9.34,4.79,16.93S55.82,92.42,61.45,89.3c4.83-2.68,1.29-18.06-5.57-25.77S37.52,53.21,31.71,62Z"/><path class="f" d="M54,82.7c1.87-2.8,5.83-3.83,9.08-4.2,1.09,5.06.75,9.48-1.64,10.8s-5.13,1-8.39-.25A7.77,7.77,0,0,1,54,82.7Z"/><path class="g" d="M56.92,64.79A32.81,32.81,0,0,1,61,72c-3.26.45-7.42,1.6-10.41,4.51a10.77,10.77,0,0,0-3,9.82c-2.11-1.24-4.35-2.72-6.7-4.34A13.45,13.45,0,0,1,45.07,70.7,26.64,26.64,0,0,1,56.92,64.79Z"/><path class="h" d="M35.76,62a21.27,21.27,0,0,1,8.32-5.31,19.55,19.55,0,0,1,8.69,4c-3.14.58-8.83,2.54-12.12,6-4.45,4.73-3.78,10-3.27,12.85l-.89-.63A17.66,17.66,0,0,1,32.41,75C31.75,71.59,31.87,66.1,35.76,62Z"/><path class="a" d="M13,43.71c3.9-2.71,8.55.4,10.2,4.5-1.8-1.54-4.78-3.74-7-3.57-2.67.2-3.9.41-5.93,2A10.26,10.26,0,0,1,13,43.71Z"/><path class="i" d="M42.7,31.57c3.72-5.31,9.84-9.63,14.66-6.71S60,35.45,60,35.45c.87,3.18-.34,13-2.73,13.24s-2,2.28-3.38,3.88-3.23,1.51-5.47.44-10.94.61-13.82,1.14-6.3-2.5-6.3-2.5C31.5,49.79,39,36.88,42.7,31.57Z"/><path class="j" d="M28.27,51.66s3.42,3,6.3,2.5S46.16,51.94,48.4,53s4.06,1.16,5.47-.44,1-3.64,3.38-3.88S60.86,38.63,60,35.45c0,0,2.2-7.67-2.62-10.59s-10.94,1.4-14.66,6.71S31.5,49.79,28.27,51.66ZM45.18,33.79c-.84,1.57-3.53,7.58-4.3,8.38s-1.63-1-2.05-1.83-.18-1.12-.18-1.12c3.11-5.9,7.86-11.1,8.34-10.82S46,32.22,45.18,33.79ZM44.84,36c.5-1,1.07-1.06,2.33-.38a16.68,16.68,0,0,0,5.46,1.29c-3,2.61-3.32,5.73-3.7,6.95s-1.53.89-3.32,1.92-2.2,3.13-2.86,4-1.48.25-2.13,0A36.19,36.19,0,0,0,37.06,49C38.69,47.56,44.34,37,44.84,36Zm14-1.14c-1.43.83-7.84,2.72-11.32.32,0,0-1.32-.74-1.24-1.6s2-6.34,3.79-7.55,6-2.78,8.53.34S60.29,34,58.86,34.87ZM49.72,45.46c-1.14-1.7.67-5.2,2.05-6.93s5.5-2.42,6.89-2.72,1,1.36,1,1.77c-.08,6.8-1.4,10.36-3.87,10.77C54.14,48.63,50.86,47.17,49.72,45.46Zm-5.5,6.72A12.67,12.67,0,0,1,43,50.7c-.29-.51,1.55-3.89,3.46-4.81s2.91,0,4,.91A24.4,24.4,0,0,0,55,49c-.6.64-.48,2.57-2.07,3.76s-3.72,0-4.93-.28A23.21,23.21,0,0,0,44.22,52.18ZM30,52.51a7,7,0,0,0,3-.36c1.11-.54,3.46-2.77,5.41-2.42A9.63,9.63,0,0,1,44,52.38s-3.68.3-5.54.56S33.27,55,30,52.51Zm-.64-.62c1.77-1.52,8.19-11.14,8.56-11.49s1.34,1.33,1.87,2.08.43,1.26-1.45,3.8a21.27,21.27,0,0,1-6.16,5.47A4.67,4.67,0,0,1,29.38,51.89Z"/><path class="i" d="M35.74,20.94c2.09-10.24,6.62-16.35,11-19.21S54.31-.26,56,3s9.34,19.54,4.54,22.19-11.94,5.21-14.76,9S35.13,53.82,28.4,51.68l-1-1.72S33.65,31.18,35.74,20.94Z"/><path class="j" d="M27.41,50l1,1.72C35.13,53.82,43,38,45.8,34.16s10-6.35,14.76-9S57.75,6.19,56,3s-5-4.1-9.34-1.23-8.87,9-11,19.21S27.41,50,27.41,50ZM38,25.08c.34,2.25.72,7.72,0,9.86s-3.8,10.11-8.14,13a8.19,8.19,0,0,1-1.43.49s3.6-9.47,4.4-11.77,3.52-14.41,3.52-16.21A16.16,16.16,0,0,1,38,25.08Zm-.15-10.2s1.39,2,2.4,2.38,2.43.59,2.82,2.1a13.25,13.25,0,0,1-.78,6.74A46.92,46.92,0,0,1,39,30.87a46,46,0,0,0-.91-7.27c-.69-2.54-1.58-3.95-1.5-4.33S37.87,14.88,37.87,14.88ZM44,21.46a25.87,25.87,0,0,1-1-3.55c0-.56,3-3.63,3.78-5.61,0,0,.55-1.3,1.42-1.08a5.87,5.87,0,0,1,3,3.05c.75,1.6,1.88,3.25.75,4.12s-3.62,3-4.24,4.52-1,1.74-1.71,1S44.23,22.25,44,21.46ZM52.5,3.54A5.2,5.2,0,0,1,51.24,8.1c-.9.74-3.1,1.67-3.78,2.37-1.4,1.45-2,4.17-4,5.87s-4-.2-4.85-1.5,2-6,3.31-8a17.27,17.27,0,0,1,7-5.29C51.37.61,52,2.22,52.5,3.54Zm6.83,8.11s-4.42-3-6-2.92S52.09,8,52.47,7.43a6.26,6.26,0,0,0-1-6.6,3.92,3.92,0,0,1,3.64,1.4C56.48,4.06,59.33,11.64,59.33,11.64Zm1.08,7.14c-1.31.83-6.36.24-7.23-1.18s-1.48-3.66-2.64-5.14-2.14-1.78-2-2a7.07,7.07,0,0,1,4.7-1.21c1.92.4,5.92,2.57,6.62,3.94a7.65,7.65,0,0,1,.81,2.2C61,16.91,61.72,18,60.41,18.78ZM47.54,25.65c-.18-1.14,2.7-6.18,5-6.73s6.79,2.27,9,.23c0,0,.44,3.78-.7,5s-8.92,4.81-10,5S47.72,26.79,47.54,25.65ZM39.65,36.58c-.28-1.35-1.21-3.41.39-5.81s3.33-4.82,3.59-7.12c0,0,0-1.57,1.52-.16a18,18,0,0,1,3.72,5.39c.34,1.08-.71,1.63-2.48,3.81s-4.46,6.75-4.8,7.25S39.93,37.93,39.65,36.58ZM28.19,50.76c-.2-.49-.2-1.66.83-1.87s4.49-2.55,6.8-7.32a37.42,37.42,0,0,0,2.33-5.83s.39-2.07.88-.25a21.45,21.45,0,0,0,1.71,4.44c.41.67-.31,2.14-.72,2.71s-6,8.95-10,8.8C30,51.43,28.39,51.25,28.19,50.76Z"/><path class="i" d="M22.09,41.82c0-4.16,2.48-8.26,8-7.6s8,5.93,8,5.93c2.48,1.76,7,8.12,5.23,8.83s-.3,1.87-.53,3.2-1.74,1.69-4.13,1.56-8.42,3-10.43,4-6.45-.06-6.45-.06C23.33,55.72,22.08,46,22.09,41.82Z"/><path class="j" d="M21.79,57.63s4.43,1.07,6.45.06,8-4.09,10.43-4,3.91-.24,4.13-1.56-1.25-2.48.53-3.2-2.75-7.07-5.23-8.83c0,0-2.54-5.26-8-5.93s-8,3.44-8,7.6S23.33,55.72,21.79,57.63Zm3.53-15c.21,1.17,1.42,5.52,1.25,6.19s-1.86-.23-2.67-.65-.78-.65-.78-.65c-.81-4.38.07-8.71.62-8.65S25.11,41.44,25.32,42.61Zm1,1.45c-.17-.76.26-.9,1.65-.78A19.78,19.78,0,0,0,33,42.8c-1,2.33.55,4.33.93,5.16s-.73.91-1.59,2,0,2.45-.06,3.14-1,.5-1.71.49-3.28.37-3.28.37C27.84,52.65,26.46,44.82,26.29,44.06Zm10.59-4A11.55,11.55,0,0,1,28,42.92s-1.47-.15-1.89-.7-1.94-4.4-1.19-5.56,3.24-3.13,7-1.79S37.56,39.21,36.88,40.06Zm-1.38,8.7C33.63,48,33.12,45.39,33.25,44s3-2.79,4-3.3,1.58.6,1.81.85c3.75,4.23,4.69,6.73,2.93,7.57C40.81,49.68,37.36,49.55,35.49,48.76Zm-.64,5.45s-1.27-.39-1.79-.64-.94-2.77.07-3.79,2.33-.68,3.72-.38a35.06,35.06,0,0,0,4.87.31c-.12.54,1.06,1.7.45,2.81s-3,.88-4.11,1A23.5,23.5,0,0,0,34.85,54.21ZM23.67,57.75a5.7,5.7,0,0,0,2.2-.93c.59-.59,1.22-2.53,3-2.77a13.54,13.54,0,0,1,5.94.33S32,55.44,30.66,56,27.68,58.54,23.67,57.75Zm-.86-.23c.57-1.36.32-8.82.41-9.12s1.82.51,2.66.85,1,.68,1,2.69A8.57,8.57,0,0,1,25,56.77,4.2,4.2,0,0,1,22.8,57.52Z"/><path class="i" d="M10.56,36.88c-4.07-6.82-3.86-11.67-2-14.46s5-3,8.17-1.43S35.16,30.89,32.8,33.66s-6.65,6-6.77,9,2.46,14.66-4.12,14.92l-1.75-.83S14.62,43.71,10.56,36.88Z"/><path class="j" d="M20.15,56.79l1.75.83c6.59-.26,4-11.91,4.12-14.92s4.42-6.27,6.77-9S19.91,22.59,16.73,21s-6.31-1.36-8.17,1.43-2.07,7.63,2,14.46S20.15,56.79,20.15,56.79ZM14.7,38.91c1.54,1.31,4.9,4.61,5.54,6.09s2.62,7.14.78,10a4.79,4.79,0,0,1-.87.64s-2.42-6.7-3.07-8.32a93.51,93.51,0,0,0-6.27-10.85A21.85,21.85,0,0,1,14.7,38.91ZM8.86,32.64a12.69,12.69,0,0,0,3.26.91,5.13,5.13,0,0,1,3.44.64,10.49,10.49,0,0,1,3.15,4.35,19.84,19.84,0,0,1,0,3.72A49.19,49.19,0,0,0,13.94,38c-2-1.41-3.48-2.07-3.63-2.33S8.86,32.64,8.86,32.64Zm8.62,2.62a32.55,32.55,0,0,1-2.76-2c-.27-.36.37-2.95-.11-4.36,0,0-.28-.93.53-1a9.15,9.15,0,0,1,4.11,1.18c1.5.81,3.33,1.57,2.92,2.37S21,34.2,21.3,35.27s.18,1.31-.82,1A12.52,12.52,0,0,1,17.49,35.25ZM14.22,22.18c1.16.69,1.86,2.45,1.55,3.12s-1.55,1.76-1.7,2.36c-.31,1.23.73,3.05.06,4.58s-3.29.81-4.72.21-1.79-4.21-1.84-5.73a7.24,7.24,0,0,1,2.65-4.92C11.68,20.63,13.07,21.49,14.22,22.18Zm10,3.41s-5.23-.83-6.47-.39-1.4-.19-1.39-.6-1.28-2.91-4.52-3.84a4.87,4.87,0,0,1,3.7,0A93.28,93.28,0,0,1,24.24,25.59Zm4.86,4.16c-.58.82-5,1.65-6.45,1s-3.24-1.92-5-2.56-2.71-.6-2.77-.77A4.45,4.45,0,0,1,18,25.54c1.76-.21,6.18.2,7.51.88a10.12,10.12,0,0,1,1.89,1.17C28.56,28.44,29.68,28.93,29.1,29.75ZM22.64,37c-.78-.66-1.31-4.46.21-5.33s6.71-.19,7.3-2c0,0,2.47,2.23,2.26,3.28S28,38.08,27.16,38.45,23.43,37.68,22.64,37Zm-.19,8.61c-1-.77-2.88-1.83-2.94-3.68s0-3.76-1.12-5.25c0,0-.89-1,1.13-.46a27.64,27.64,0,0,1,6,2.46c.88.59.34,1.18.15,2.94a40.72,40.72,0,0,0,.22,5.61C25.89,47.64,23.43,46.4,22.45,45.63ZM21.22,57.09c-.43-.26-1.08-1-.38-1.35s2.17-2.63,1.35-6.12a20.66,20.66,0,0,0-1.4-4.15s-.85-1.37.57-.36a29.47,29.47,0,0,0,3.86,2.34,2.2,2.2,0,0,1,.95,1.85c0,.45.18,7-3.09,7.79A4.28,4.28,0,0,1,21.22,57.09Z"/></svg>