<svg xmlns="http://www.w3.org/2000/svg" xmlns:xlink="http://www.w3.org/1999/xlink" viewBox="0 0 87.97 146.66"><defs><style>.a{fill:url(#a);}.b{fill:url(#b);}.c{fill:#fff;}.d{opacity:0.2;}.e{fill:#405194;}.f{fill:url(#c);}.g{fill:url(#d);}.h{fill:url(#e);}.i{fill:url(#f);}.j{fill:url(#g);}.k{fill:url(#h);}.l{fill:url(#i);}.m{fill:url(#j);}.n{fill:#61acf4;opacity:0.3;}.o{fill:#ffe3c1;opacity:0.5;}</style><linearGradient id="a" x1="1691.52" y1="67.33" x2="1698.71" y2="163.87" gradientTransform="translate(-1637.69)" gradientUnits="userSpaceOnUse"><stop offset="0" stop-color="#00c855"/><stop offset="1" stop-color="#009ec8"/></linearGradient><linearGradient id="b" x1="50.18" y1="98.51" x2="40.89" y2="117.1" gradientUnits="userSpaceOnUse"><stop offset="0" stop-color="#38f687"/><stop offset="1" stop-color="#76eaff"/></linearGradient><linearGradient id="c" x1="56.2" y1="80.86" x2="57.32" y2="58.61" gradientUnits="userSpaceOnUse"><stop offset="0" stop-color="#f5c334"/><stop offset="1" stop-color="#f23b0a"/></linearGradient><linearGradient id="d" x1="50.43" y1="80.45" x2="51.44" y2="60.1" gradientUnits="userSpaceOnUse"><stop offset="0" stop-color="#6a6fb8"/><stop offset="1" stop-color="#1b3d71"/></linearGradient><linearGradient id="e" x1="66.29" y1="81.23" x2="67.3" y2="60.88" xlink:href="#d"/><linearGradient id="f" x1="74.63" y1="81.65" x2="75.64" y2="61.29" xlink:href="#d"/><linearGradient id="g" x1="43.75" y1="83.08" x2="28.43" y2="57.47" xlink:href="#d"/><radialGradient id="h" cx="13.38" cy="76.03" r="6.87" gradientUnits="userSpaceOnUse"><stop offset="0" stop-color="#42def7"/><stop offset="1" stop-color="#1b3d71"/></radialGradient><linearGradient id="i" x1="31" y1="86.76" x2="15.56" y2="74.53" gradientUnits="userSpaceOnUse"><stop offset="0" stop-color="#6a6fb8"/><stop offset="1" stop-color="#4a3299"/></linearGradient><radialGradient id="j" cx="25.97" cy="81.44" r="6.29" xlink:href="#h"/></defs><title>Ресурс 3</title><path class="a" d="M78.32,117A16.74,16.74,0,0,1,70.77,130l-27,15.59c-4.15,2.4-7.55.44-7.55-4.36V110.08A16.75,16.75,0,0,1,43.76,97l27-15.59c4.15-2.4,7.55-.44,7.55,4.36Z"/><path class="b" d="M75.59,80.66l-.34-.11a3.89,3.89,0,0,0-.76-.13,5.66,5.66,0,0,0-2.39.37,8.82,8.82,0,0,0-1.33.63l-4.31,2.49-1.67,1-2.23,1.29-8.81,5.09L50.69,93l-5.94,3.43-.25.14-.74.43c-.28.16-.55.34-.82.53s-.73.55-1.09.86c-3.23,2.85-5.63,7.66-5.63,11.69v31.19a6.84,6.84,0,0,0,0,.79v.14a5,5,0,0,0,.1.69,6.33,6.33,0,0,0,.16.66l0,.07a5.3,5.3,0,0,0,.23.6l0,.06c.09.18.18.35.28.51l.47.62a2,2,0,0,0,.25.26l.12.1a2.54,2.54,0,0,0,.42.31l-.09,0-4.91-2.94c-1.43-.76-2.32-2.47-2.32-4.93V107c0-4.61,3.13-10.22,7.06-12.77a4.42,4.42,0,0,1,.49-.31l2-1.14L48.86,88l1.9-1.09,3.87-2.24,2.65-1.53,3.33-1.92,2.55-1.47,2.42-1.4c2.14-1.24,4.08-1.32,5.46-.44l1.24.76,2.47,1.52.83.5Z"/><path class="c" d="M48.8,114.29a6,6,0,0,0-2.43,2.77,10.13,10.13,0,0,0-.86,4.3q0,5.07,3.29,3.17a18.05,18.05,0,0,0,3.35-2.73v2.69a15.88,15.88,0,0,1-3.61,2.86q-2.87,1.65-4.38.52T42.64,123a14.23,14.23,0,0,1,.74-4.57,13,13,0,0,1,2.14-4,11.55,11.55,0,0,1,3.27-2.84,8,8,0,0,1,3.84-1.15l-.9,3.13a10.26,10.26,0,0,0-1.48.15A4.47,4.47,0,0,0,48.8,114.29Z"/><path class="c" d="M62.69,114.76a7.08,7.08,0,0,1-1.28,4A10.44,10.44,0,0,1,57.85,122a7.86,7.86,0,0,1-3.72,1.23v-3a11.31,11.31,0,0,0,2.25-.34,7.11,7.11,0,0,0,1.68-.69,4.38,4.38,0,0,0,1.4-1.22,2.5,2.5,0,0,0,.49-1.49.92.92,0,0,0-.22-.67,1.14,1.14,0,0,0-.63-.3,9.62,9.62,0,0,0-1.7,0,4.49,4.49,0,0,1-1.8-.21,2,2,0,0,1-1-.84,3.2,3.2,0,0,1-.36-1.66,7,7,0,0,1,1.18-3.84,9.33,9.33,0,0,1,3.26-3,8.39,8.39,0,0,1,2-.85,10.25,10.25,0,0,1,1.94-.34l-.9,3A10.12,10.12,0,0,0,60,108a6.12,6.12,0,0,0-1.35.58,3.4,3.4,0,0,0-1.21,1.12,2.51,2.51,0,0,0-.42,1.35,1,1,0,0,0,.17.64.9.9,0,0,0,.54.3,10,10,0,0,0,1.76,0,3.65,3.65,0,0,1,2.52.58A2.77,2.77,0,0,1,62.69,114.76Z"/><path class="c" d="M72.82,108.91a7.08,7.08,0,0,1-1.28,4A10.46,10.46,0,0,1,68,116.12a7.87,7.87,0,0,1-3.72,1.23v-3a11.32,11.32,0,0,0,2.25-.34,7.11,7.11,0,0,0,1.68-.69,4.4,4.4,0,0,0,1.4-1.21,2.51,2.51,0,0,0,.49-1.49.92.92,0,0,0-.22-.67,1.15,1.15,0,0,0-.63-.3,9.69,9.69,0,0,0-1.7,0,4.5,4.5,0,0,1-1.8-.21,2,2,0,0,1-1-.84,3.2,3.2,0,0,1-.36-1.66,7,7,0,0,1,1.18-3.84,9.34,9.34,0,0,1,3.26-3,8.46,8.46,0,0,1,2-.85,10.19,10.19,0,0,1,1.94-.33l-.9,3a10.14,10.14,0,0,0-1.74.31,6.17,6.17,0,0,0-1.35.58,3.39,3.39,0,0,0-1.21,1.12,2.5,2.5,0,0,0-.42,1.35,1,1,0,0,0,.17.64.9.9,0,0,0,.54.3,10,10,0,0,0,1.76,0,3.65,3.65,0,0,1,2.52.58A2.77,2.77,0,0,1,72.82,108.91Z"/><path class="d" d="M49.93,89.57l-.11,3.94.38-.22L51,95.66l1.08.33s2.32,5.9,3,6.71,1.23.25,1.23.25L58,104.7l.64-1.08L53.09,95.2l-3.71-7.54Z"/><path class="d" d="M57.27,85c.22.12,4.4,1.71,4.4,1.71s3.38,4,4,5.44,1.58,3.5,1.58,3.5l2-.26,4.84,4.47.66-.75,3.6,2.41v-1.15l-4.26-3.73L67,89.11,61.3,83.65Z"/><path d="M24.59,70.5,23.39,71a9.29,9.29,0,0,1,2.27,10.63,4.31,4.31,0,0,0,3.93,1C31.79,82,29.37,72.18,24.59,70.5Z"/><path class="e" d="M37,89.22a2.29,2.29,0,0,1-.4.94,3.32,3.32,0,0,1-.63.66,4.16,4.16,0,0,1-1,.57c-1.71-1-3.42-3.09-4.8-5.17-.38-.57-.73-1.14-1.05-1.67s-.72-1.26-1-1.78c-.56-1-.89-1.74-.89-1.74l1.68-.44a4.1,4.1,0,0,0,1,1.78l.07.09c.4.46.87.94,1.38,1.42.78.74,1.64,1.48,2.46,2.14,1,.84,2,1.55,2.54,2l.61.45A2.18,2.18,0,0,1,37,89.22Z"/><path class="f" d="M36.2,71.9c3.22,4.26,9.92,8.32,15.48,9.9,7.13,2,19.15,3.89,24.82-.9C84.12,74.45,68,61.06,63,58.56c-7-3.5-17-4.47-24.1,1C35.19,62.44,33.28,68,36.2,71.9Z"/><path class="g" d="M50.5,55.74c-3.49.4-6.59.89-9.71,2.61,5.06,2.08,12.78,5.71,11.77,12.41A14.8,14.8,0,0,1,47,80.12c1.4.58,3,1.14,4.72,1.68.82.25,1.62.47,2.4.67,3.09-2.36,6.13-5.25,7.14-9.1C63.41,65,57.2,59.6,50.5,55.74Z"/><path class="h" d="M72.91,77.65c2.46-4.34.51-9.11-1.57-13.34A41.19,41.19,0,0,0,63,58.56a22.13,22.13,0,0,0-2.9-1.27c4.52,3.89,8.81,10.6,7,16.13-1.35,4.07-4.37,7.21-8.2,10a39.69,39.69,0,0,0,7.42.19A16.64,16.64,0,0,0,72.91,77.65Z"/><path class="i" d="M71.31,82.9a12.09,12.09,0,0,0,5.18-2c1.26-1.13,2.11-3.35,1.33-6.63A13.25,13.25,0,0,1,71.31,82.9Z"/><path class="e" d="M37.45,89.79a.84.84,0,0,1-.39.26,3.7,3.7,0,0,1-.45.11,4,4,0,0,1-1,0A4.63,4.63,0,0,1,33.14,89a11.39,11.39,0,0,0,.74-3,8.65,8.65,0,0,0-.52-3.86,8.93,8.93,0,0,0-1.14-2.21,8.17,8.17,0,0,0-1.35-1.53l1.21-.51.1,0a8.64,8.64,0,0,1,4.16,4.37C37.83,85.29,38.33,88.77,37.45,89.79Z"/><path class="e" d="M40.54,92.76l-2,1.14a4.42,4.42,0,0,0-.49.31c-.82-1.19-1.54-2.39-2.1-3.39a3.32,3.32,0,0,0,.63-.66,3.7,3.7,0,0,0,.45-.11.84.84,0,0,0,.39-.26A27.66,27.66,0,0,0,40.54,92.76Z"/><path class="e" d="M37,89.22c.13.18.28.38.44.57a.84.84,0,0,1-.39.26,3.7,3.7,0,0,1-.45.11,3.32,3.32,0,0,1-.63.66l-.35-.64c-.56-1-.89-1.74-.89-1.74L36.42,88A3.05,3.05,0,0,0,37,89.22Z"/><path class="e" d="M46.88,81.27s-7.14,1-10.56-4.24l-1.54-.17s1.55,8.29,12,8.09A3.24,3.24,0,0,0,46.88,81.27Z"/><path class="e" d="M46.8,82.33l-.7,1.53c2.8,1.81,5.17,11.23,5.17,11.23A3.67,3.67,0,0,0,55,94.16C53.49,89.07,46.8,82.33,46.8,82.33Z"/><path class="e" d="M54,94.17l-1.47.56s1.28,4.83,3.16,7.33A4.12,4.12,0,0,0,58,100.22S54.61,96,54,94.17Z"/><path class="e" d="M56.59,100.34l-.65,1a14.54,14.54,0,0,0,2.91,3.06l.69-1.13A14.66,14.66,0,0,1,56.59,100.34Z"/><path class="j" d="M45.37,63.39c-2.17-2.07-6.61-5.17-14-3.3s-8.79,6-9.22,9.35,4.26,15.33,17.39,12.45,11.2-12,10.22-14.18S45.37,63.39,45.37,63.39Z"/><path class="e" d="M61.1,81.11s-10.81,1.61-15.95-4.25l-1.54.57s3.86,7.19,17.91,8.44A13,13,0,0,0,61.1,81.11Z"/><path class="e" d="M61,82.28l-.68,2.18c3.46,1.53,8.38,9.91,8.38,9.91,2-.11,3-2.92,3-2.92C69.71,87.71,61,82.28,61,82.28Z"/><path class="e" d="M76.86,96.94s-5.33-3.87-6.87-5.8l-.54,1.73s3.44,5,5.9,6.69A4.31,4.31,0,0,0,76.86,96.94Z"/><path class="e" d="M75.76,97.59l-.33,1a11,11,0,0,0,3.85,2.55l.38-1.23S76.65,98.72,75.76,97.59Z"/><path class="e" d="M39.57,81.89c7.11-1.56,9.81-4.95,10.62-8.07C44,80.67,34.1,74.13,34.4,72s-3.15-3.39-6-5.15c-1.77-1.07-.27-4.08,1.16-6.24-5.74,2.05-7,5.72-7.35,8.78C21.75,72.82,26.44,84.77,39.57,81.89Z"/><path class="k" d="M17.67,70s-3.76-1.34-5.5,2.95,2.09,12.5,5.89,14.47S17.67,70,17.67,70Z"/><path class="l" d="M18.39,91.34s-7-11.78-4.09-19.57S30,67.14,31.68,74.65c1.83,8.25-.81,12.66-8.05,17.87A3.4,3.4,0,0,1,18.39,91.34Z"/><path class="m" d="M26,74.06c-2.31.4-4.09,2.22-4.7,6.45s1.4,9,3.55,8.36c3-.94,5.81-5.78,5.94-10.17S28.26,73.66,26,74.06Z"/><path class="e" d="M21.74,67.27c-3.18-.13-6.19,1.2-7.44,4.5-2.95,7.79,4.09,19.57,4.09,19.57a3.89,3.89,0,0,0,2,1.76,38.49,38.49,0,0,1-3.21-18.37A9.62,9.62,0,0,1,21.74,67.27Z"/><path class="n" d="M21.2,33.32c-1.35-8-.94-17.89,3.17-21.13S32,16.95,32,16.95c2.33,1.33,7.62,9.8,6.59,12.63s.4,3.84.67,6.56a7.36,7.36,0,0,1-2.42,6.39c-1.74,1.71-5,12.59-6.1,16.17a9.27,9.27,0,0,1-4.59,5.19C26.62,59,22.55,41.29,21.2,33.32Z"/><path class="o" d="M26.16,63.89a9.27,9.27,0,0,0,4.59-5.19c1.1-3.59,4.35-14.46,6.1-16.17a7.36,7.36,0,0,0,2.42-6.39c-.27-2.72-1.7-3.73-.67-6.56S34.33,18.28,32,16.95c0,0-3.52-8-7.63-4.76S19.85,25.35,21.2,33.32,26.62,59,26.16,63.89ZM23.74,32.17c.53,2.06,2.81,9.4,2.91,10.84s-1.39,1.09-2.1.95-.76-.61-.76-.61c-2-7.73-2.8-16.76-2.39-17.1S23.21,30.11,23.74,32.17Zm1.16,2a2.33,2.33,0,0,1,.91-2.85c1.6-1.41,3.46-5.13,3.46-5.13a19.15,19.15,0,0,0,2.35,9.13c.54,1.29-.22,2.34-.48,5.08s.8,4.71,1,6.06a2.51,2.51,0,0,1-1.05,2.36c-.47.53-2.2,3.4-2.2,3.4C28.81,49.35,25.28,35.47,24.91,34.16ZM31.1,17.78c-.2,2.19-2.22,10.67-5.36,12.8,0,0-1.09.93-1.57.21s-2.81-6.84-2.66-9.68,1.28-8.67,4.39-9.22S31.3,15.58,31.1,17.78ZM33,35.59c-1.58,0-2.79-4.51-3.15-7.3s1.25-7.85,1.75-9.62,1.32-.16,1.56.15c4,5,5.52,9.05,4.55,12.1C37,33,34.54,35.56,33,35.59Zm1.33,11a6.1,6.1,0,0,1-1.48.25c-.45,0-1.57-4.54-1.19-7.33s1.43-3.23,2.51-3.79a22.61,22.61,0,0,0,3.55-3.42c.09,1.13,1.31,2.39,1.24,5s-1.81,4.13-2.59,5.27A37.51,37.51,0,0,0,34.29,46.57Zm-6.76,16A13.44,13.44,0,0,0,28.78,59c.22-1.62,0-5.85,1.2-7.76S32.41,47.62,34.3,47c0,0-1.63,4.31-2.38,6.55S30.62,60.77,27.53,62.56Zm-.69.26c0-3.07-2.66-17.17-2.69-17.83s1.45-.52,2.16-.57,1,.44,1.57,4.37a46.9,46.9,0,0,1,.26,10.8A8.2,8.2,0,0,1,26.84,62.83Z"/><path class="n" d="M8.58,35.31A50.93,50.93,0,0,1,0,9.93C-.22,3,1.62-.15,4.42,0S21,2.25,20.92,9.53s-1.12,17.21.32,23,9,25.35,5,31.68H24.67S14.59,44.52,8.58,35.31Z"/><path class="o" d="M24.67,64.19h1.52c4-6.32-3.52-25.91-5-31.68s-.4-15.69-.32-23S7.23.17,4.42,0-.22,3,0,9.93A50.93,50.93,0,0,0,8.58,35.31C14.59,44.52,24.67,64.19,24.67,64.19ZM12.21,35.44c1.63,1.1,5.41,4.31,6.56,6.54S24,53.07,24.3,60a17.94,17.94,0,0,1-.23,2s-4.91-10.44-6.13-12.9S9.72,35.46,8.52,34.27A7.83,7.83,0,0,1,12.21,35.44ZM5.38,28.83s1.88-.25,2.5-1.18,1.33-2.4,2.48-1.85,3.45,3.43,4.18,5.38,1.9,7,1.9,7a30.53,30.53,0,0,0-5.18-3.78c-2-.9-3.23-.8-3.45-1.15S5.38,28.83,5.38,28.83Zm6.73-2.73a13.84,13.84,0,0,1-2.73-1.25C9,24.43,8.12,19,7.1,16.76c0,0-.65-1.5-.18-2.35A3.31,3.31,0,0,1,10.11,13c1.35.2,2.88,0,3,1.87s.63,6.19,1.38,7.89.78,2.3,0,2.63S12.71,26.4,12.11,26.1ZM3.45,4.45c1.08.28,2.4,3,2.55,4.48s-.08,4.68.12,5.93c.43,2.58,2,5.08,2.35,8.54S6.83,27.83,5.63,28s-3.25-6.31-4.06-9.14A38.71,38.71,0,0,1,.75,7.25C1.07,3.79,2.37,4.17,3.45,4.45Zm8-2.48S7.76,5,7.2,7s-1,.88-1.18.1S3.75,2.74,1.25,3.87c0,0,.58-2.86,2.33-3.26S11.46,2,11.46,2Zm5.16,3.51C16.67,7.53,14.34,13,13.06,13s-3-.73-4.43-.38-2,1.28-2.13,1a15,15,0,0,1,1-6.21c1-2,4-5.11,5.16-5a3.82,3.82,0,0,1,1.78.53C15.62,3.5,16.57,3.42,16.62,5.47Zm-.38,19.38c-.83-.55-3.07-7.21-2.56-10.19S17.8,8.35,17.27,4.5c0,0,2.68,2,3.08,4.16s-.23,13.47-.55,14.87S17.07,25.4,16.24,24.85ZM20.48,41.2a5.67,5.67,0,0,1-3.71-4.31c-1-3.43-1.93-7-3.35-8.86,0,0-1.05-1,.48-1.85a8.22,8.22,0,0,1,5-.7c.85.32.81,1.9,1.58,5.38s2.77,9.61,3,10.34S21.48,41.78,20.48,41.2Zm5,22.61a1.87,1.87,0,0,1-.93-2.2c.25-1.33,0-6.86-2.25-12.69a54.65,54.65,0,0,0-3-6.56s-1.23-1.83.18-1.18a10.21,10.21,0,0,0,3.61,1c.6,0,1.3,1.78,1.53,2.63s3.63,12.89,2,17.38C26.65,62.16,25.9,63.91,25.5,63.81Z"/><path class="n" d="M60.72,53.48c7.13-3.82,16.66-6.59,21-3.73s-2.08,8.75-2.08,8.75c-.52,2.64-6.86,10.35-9.87,10.27s-3.52,1.6-6,2.72A7.36,7.36,0,0,1,57,71.24c-2.17-1.11-13.52-.73-17.27-.63a9.28,9.28,0,0,1-6.38-2.7C38.15,66.79,53.59,57.3,60.72,53.48Z"/><path class="o" d="M33.33,67.92a9.28,9.28,0,0,0,6.38,2.7c3.75-.1,15.1-.48,17.27.63a7.36,7.36,0,0,0,6.83.26c2.49-1.12,3-2.8,6-2.72s9.35-7.64,9.87-10.27c0,0,6.46-5.88,2.08-8.75s-13.91-.1-21,3.73S38.15,66.79,33.33,67.92ZM62.62,55.53c-1.79,1.16-8,5.66-9.35,6.21s-1.48-1-1.57-1.69.34-.92.34-.92c6.69-4.37,15-8,15.44-7.71S64.4,54.37,62.62,55.53ZM61.1,57.26a2.33,2.33,0,0,1,3,0c1.85,1.07,6,1.64,6,1.64A19.14,19.14,0,0,0,62.15,64c-1.05.93-2.29.54-5,1.16S53,67.42,51.75,68a2.5,2.5,0,0,1-2.57-.25c-.65-.28-3.92-1-3.92-1C47.95,65.8,60,58,61.1,57.26Zm17.5.65c-2.14.51-10.82,1.3-13.84-1,0,0-1.23-.74-.7-1.42s5.59-4.84,8.33-5.61S81,48.33,82.53,51.11,80.75,57.4,78.61,57.91ZM62.31,65.35c-.53-1.49,3.39-4.08,5.92-5.31s7.84-1.32,9.68-1.41.57,1.2.36,1.53c-3.47,5.42-6.82,8.12-10,8.17C66.09,68.37,62.85,66.84,62.31,65.35Zm-10,4.75a6.05,6.05,0,0,1-.71-1.32c-.1-.44,3.81-2.94,6.57-3.46s3.51.32,4.39,1.17a22.52,22.52,0,0,0,4.37,2.28c-1,.45-1.85,2-4.36,2.77s-4.5-.4-5.82-.78A37.52,37.52,0,0,0,52.33,70.11ZM35,68.79a13.43,13.43,0,0,0,3.8,0c1.61-.3,5.56-1.83,7.74-1.33s4.19,1.15,5.41,2.73c0,0-4.6-.17-7-.17S37.7,71.16,35,68.79Zm-.47-.57c2.9-1,15.42-8,16-8.23s1,1.21,1.23,1.87-.11,1.06-3.64,2.87A46.85,46.85,0,0,1,38,68.42,8.18,8.18,0,0,1,34.55,68.22Z"/><path class="n" d="M54.81,42.16A51,51,0,0,1,76.14,26c6.45-2.42,10.07-1.69,10.81,1s3.15,16.42-3.78,18.67S66.5,50.05,61.5,53.26,40.32,69.83,33.05,68l-.48-1.44S48,50.78,54.81,42.16Z"/><path class="o" d="M32.57,66.61,33.05,68c7.27,1.78,23.44-11.59,28.45-14.79s14.75-5.38,21.68-7.62S87.7,29.68,87,27s-4.36-3.43-10.81-1a51,51,0,0,0-21.33,16.2C48,50.78,32.57,66.61,32.57,66.61Zm23.28-21c-.53,1.89-2.36,6.5-4.11,8.3s-8.84,8.52-15.33,11a18,18,0,0,1-1.95.42s8.33-8,10.27-9.92S55,43.28,55.79,41.76A7.83,7.83,0,0,1,55.84,45.64Zm4.09-8.58s.84,1.7,1.91,2,2.7.49,2.55,1.76-2.15,4.37-3.77,5.68-6,4-6,4a30.59,30.59,0,0,0,1.93-6.12c.23-2.14-.27-3.32,0-3.64S59.93,37.05,59.93,37.05Zm4.73,5.52a13.78,13.78,0,0,1,.32-3c.29-.47,5.15-3.06,6.94-4.73,0,0,1.22-1.1,2.18-.92a3.3,3.3,0,0,1,2.37,2.56c.24,1.35.92,2.73-.81,3.47s-5.67,2.56-7,3.82-1.94,1.47-2.49.84S64.57,43.23,64.67,42.57ZM82.44,27.46c.08,1.11-2,3.22-3.43,3.85s-4.46,1.41-5.59,2c-2.31,1.23-4.18,3.52-7.34,5s-4.73-.16-5.25-1.25,4.95-5.09,7.37-6.76a38.7,38.7,0,0,1,10.72-4.47C82.3,25,82.36,26.35,82.44,27.46Zm4.9,6.81s-4.1-2.53-6.1-2.44-1.14-.65-.47-1.08,3.38-3.54,1.51-5.55c0,0,2.89-.36,3.83,1.17S87.34,34.26,87.34,34.26Zm-1.68,6c-1.93.7-7.82.22-8.28-1s-.27-3.08-1.05-4.32-1.85-1.49-1.63-1.7a15,15,0,0,1,6.21-1c2.17.33,6.11,2.15,6.39,3.29a3.84,3.84,0,0,1,.07,1.85C87.21,38.69,87.59,39.57,85.66,40.27ZM67.17,46.08c.26-1,5.86-5.21,8.84-5.68s7.29,1.89,10.78.17c0,0-1,3.18-3,4.24S71,48.89,69.56,49,66.91,47,67.17,46.08ZM53,55.31a5.66,5.66,0,0,1,2.9-4.89c2.94-2,6.06-4.07,7.33-6,0,0,.64-1.32,1.91-.14a8.23,8.23,0,0,1,2.26,4.52c0,.91-1.55,1.37-4.6,3.21S54.59,57.7,54,58.13,52.79,56.44,53,55.31Zm-19.83,12A1.87,1.87,0,0,1,35,65.69c1.34-.18,6.51-2.16,11.32-6.18a54.51,54.51,0,0,0,5.27-4.91s1.34-1.74,1.17-.21A10.2,10.2,0,0,0,53,58.12c.21.56-1.27,1.8-2,2.29S39.89,68,35.12,67.84C35.12,67.84,33.22,67.68,33.19,67.27Z"/><path class="e" d="M20.74,77.68a39.19,39.19,0,0,0-4.45,1.47C16,79.45,12.59,92,12.59,92l-.76,8.36H13l.46-7.94h.42S16.37,80.79,17,80.08s3.41-.67,3.41-.67S21.33,79.23,20.74,77.68Z"/><path class="e" d="M14.56,73.94H6.83S5.61,76.29,5.4,77s-2,11.26-2,11.26l.42,7.31.88-.21-.38-7h.42S6.28,77.64,6.66,77.09s.29-2,2.31-2,5.09.38,5.09.38S15.68,75.05,14.56,73.94Z"/></svg>