<svg xmlns="http://www.w3.org/2000/svg" xmlns:xlink="http://www.w3.org/1999/xlink" viewBox="0 0 193.66 239.26"><defs><style>.a{fill:url(#a);}.b{fill:url(#b);}.c{fill:#fff;}.d{opacity:0.2;}.e{fill:#405194;}.f{fill:url(#c);}.g{fill:url(#d);}.h{fill:url(#e);}.i{fill:url(#f);}.j{fill:url(#g);}.k{fill:url(#h);}.l{fill:url(#i);}.m{fill:#6dfff8;opacity:0.3;}.n{fill:#fffff5;opacity:0.5;}</style><linearGradient id="a" x1="1747.07" y1="70.91" x2="1762.34" y2="275.8" gradientTransform="translate(-1637.69)" gradientUnits="userSpaceOnUse"><stop offset="0" stop-color="#2962ff"/><stop offset="1" stop-color="#29ffee"/></linearGradient><linearGradient id="b" x1="101.65" y1="137.09" x2="81.92" y2="176.54" gradientUnits="userSpaceOnUse"><stop offset="0" stop-color="#6d99fe"/><stop offset="1" stop-color="#98fffe"/></linearGradient><linearGradient id="c" x1="74.08" y1="86.16" x2="90.52" y2="60.13" gradientUnits="userSpaceOnUse"><stop offset="0" stop-color="#6a6fb8"/><stop offset="1" stop-color="#4a3299"/></linearGradient><radialGradient id="d" cx="-70.36" cy="71.43" r="9.92" gradientTransform="matrix(-1, 0, 0, 1, 0.4, 0)" gradientUnits="userSpaceOnUse"><stop offset="0" stop-color="#42def7"/><stop offset="1" stop-color="#1b3d71"/></radialGradient><linearGradient id="e" x1="81.2" y1="85.13" x2="120.69" y2="85.13" xlink:href="#c"/><linearGradient id="f" x1="102.17" y1="119.06" x2="149" y2="119.06" gradientUnits="userSpaceOnUse"><stop offset="0" stop-color="#f5b216"/><stop offset="1" stop-color="#f23b0a"/></linearGradient><linearGradient id="g" x1="122.7" y1="144.64" x2="146.64" y2="144.64" gradientUnits="userSpaceOnUse"><stop offset="0" stop-color="#6a6fb8"/><stop offset="1" stop-color="#1b3d71"/></linearGradient><linearGradient id="h" x1="109.82" y1="124.04" x2="149" y2="124.04" xlink:href="#g"/><linearGradient id="i" x1="102.43" y1="103.92" x2="145.32" y2="103.92" xlink:href="#g"/></defs><title>Ресурс 2</title><path class="a" d="M161.37,176.25c0,10.18-7.2,22.66-16,27.75L88,237.09c-8.81,5.09-16,.93-16-9.25V161.65c0-10.17,7.21-22.66,16-27.74l57.32-33.1c8.81-5.09,16-.93,16,9.25Z"/><path class="b" d="M155.56,99.18h0a8.14,8.14,0,0,0-2.29-.52,11.9,11.9,0,0,0-5.12.8c-.31.11-.61.24-.92.37a18.7,18.7,0,0,0-1.89,1l-.62.36-1.3.75-16,9.22L113.73,119,112,120l-3.92,2.27-2.23,1.28-3.36,1.94-5.17,3-9.06,5.23-.28.16a19.81,19.81,0,0,0-1.71,1.1c-8,5.62-14.31,17.14-14.31,26.65v66.19c0,.33,0,.65,0,1s0,.56.06.83.05.52.09.78a14.44,14.44,0,0,0,.69,2.88l.14.39.21.49a8.7,8.7,0,0,0,3.3,3.88h0l-.17-.1L65.9,231.71c-3-1.62-4.93-5.26-4.93-10.47V155c0-10.17,7.2-22.66,16-27.75l3.23-1.86,2.55-1.48L98.23,115l1-.58,1.23-.71,1-.57.11-.07,1.82-1.05h0l2.1-1.22,10.65-6.14L119,103l0,0,15.25-8.8a16.81,16.81,0,0,1,4.31-1.8h0a9.06,9.06,0,0,1,7.26.87Z"/><path class="c" d="M99.6,208.14A17.22,17.22,0,0,1,95.37,210v-6.88a15,15,0,0,0,3.37-1.42,7.85,7.85,0,0,0,3.37-3.64,14.56,14.56,0,0,0,1-5.88V155.66l7.16-4.13V188a25.28,25.28,0,0,1-2.7,12A20.22,20.22,0,0,1,99.6,208.14Z"/><path class="c" d="M136.24,166.68a14.81,14.81,0,0,1-2.76,8.58,25,25,0,0,1-8.25,7.16,30.52,30.52,0,0,1-4.8,2.33,14.72,14.72,0,0,1-3.72.85v-6.72a18.64,18.64,0,0,0,4.42-.77,18.87,18.87,0,0,0,4.33-1.78q3.84-2.21,3.84-4.77a1.36,1.36,0,0,0-.51-1.26A3.88,3.88,0,0,0,127,170a28.45,28.45,0,0,0-3.32.14,12.47,12.47,0,0,1-4.37-.14,3.23,3.23,0,0,1-2-1.64,7.84,7.84,0,0,1-.63-3.54,13,13,0,0,1,2.67-7.69,23.63,23.63,0,0,1,7.56-6.54,20,20,0,0,1,9.08-2.89l-2.13,7.09a28.88,28.88,0,0,0-3.62.52,11.93,11.93,0,0,0-3.44,1.37q-3.12,1.8-3.12,3.74a1.2,1.2,0,0,0,1,1.31,17.34,17.34,0,0,0,4.4-.17,12.39,12.39,0,0,1,4.43.08,3.35,3.35,0,0,1,2.08,1.62A7.21,7.21,0,0,1,136.24,166.68Z"/><path class="d" d="M99.23,114.45l-1,13.55-2.44,1.41-1.13,5.71,2.28.71v10.07l1.64,1.3,1.75,5.13.3-1.8-.17-36.79,1.32-.3,7.08,13.76a68.16,68.16,0,0,1,1.43,10.47c.22,5.12,0,8.78,0,8.78l3.41.75,1.48,9.17,2.58-.89,1.42,6,1.49,2.14-1.24-5.64-4.67-22.12,3-1.43-.58,7.22s-.37,5.63,5.52,9.92,12.64,5.86,13.14-4.92S103.39,112,103.39,112Z"/><path class="e" d="M71.78,55.93c.44-1.31,2.56-3.49,3.31-3.12S80.83,62,80.83,62L79,63.27s-3.74-7.34-4.12-8-1.68,1.06-1.68,1.06L69.73,68.72H69l1.18,4.38-1.62.68-.81-5.18S71.35,57.24,71.78,55.93Z"/><path class="e" d="M71.1,67.16s-9.17-6.68-11.23-6.05S54.69,74,54.69,74L55,85.13h2.06L55.88,74l.44.44s2.56-10.23,4.06-11S71.1,69.47,71.1,69.47Z"/><path class="f" d="M67.17,85.13s.45-19.63,10.14-26.35,22,7.2,18,17.31C90.78,87.18,84.16,90.21,71.53,90.47,67.24,90.55,66.92,87.31,67.17,85.13Z"/><path class="g" d="M75.93,63.53c-2.85,0-5.53,2.14-7.61,8.11-2,5.8-1.29,13.46,1.46,13,3.79-.58,8.69-6.84,10.28-13.17S78.76,63.56,75.93,63.53Z"/><path class="h" d="M92,72.3a18.56,18.56,0,0,1,12-4.21c7,.27,17.72,11.37,16.56,19.69s-10.92,16.74-23.36,13.78S79.16,88.05,81.87,79.28C83.33,74.57,88.56,74.55,92,72.3Z"/><path class="e" d="M81.87,79.28c1.46-4.71,6.69-4.72,10.17-7l.13-.11C86.76,78,87.33,89.88,95.46,92.27c7.37,2.16,21.66-7.25,24.65-9.3a11.25,11.25,0,0,1,.48,4.82c-1.16,8.32-10.92,16.74-23.36,13.78S79.16,88.05,81.87,79.28Z"/><path class="e" d="M79.49,101.27a21.63,21.63,0,0,0,7.83,1.62c4.43.07,3.54-8.94,3.54-9.42l2.07.48s1.85,11.89-2,13.66-12.33.52-12.33.52C75.57,104.89,79.49,101.27,79.49,101.27Z"/><path class="e" d="M82,121.71a6.44,6.44,0,0,1-1,.29,5.78,5.78,0,0,1-3-.15,5.48,5.48,0,0,1-2.23-1.32c-1.44-8.31.09-12.94,1.67-15.39a7,7,0,0,1,2.44-2.46l1.4,2.66a4.67,4.67,0,0,0-1.49,2.94C78.94,113.3,82,121.71,82,121.71Z"/><path class="e" d="M82.77,123.95l-2.55,1.48L78,121.85a5.78,5.78,0,0,0,3,.15C81.52,122.62,82.14,123.29,82.77,123.95Z"/><path class="e" d="M81,122a5.78,5.78,0,0,1-3-.15l-.57-.93,1.27-1.84A16.15,16.15,0,0,0,81,122Z"/><path class="e" d="M95.87,95.92l1.84.55c-2.56,6.46,4.07,17,4.07,17-1.17,1.1-5,1.38-5,1.38C90.31,104.37,95.87,95.92,95.87,95.92Z"/><path class="e" d="M97.71,113.23h2.63s2.89,12,2.68,20.34a6.8,6.8,0,0,1-6.53,0S99.76,116.88,97.71,113.23Z"/><path class="e" d="M98.69,132.51l3.37.38s-.39,9,1,12.37c0,0-1.73,1.24-4.75.28C98.28,145.53,98.07,135.23,98.69,132.51Z"/><path class="e" d="M99.44,143.57l1.92,1.2s.21,5.08,1,7.28l-2.06.27A74.73,74.73,0,0,1,99.44,143.57Z"/><path class="i" d="M111.93,87.4s-16.73,9.48-6.38,29.85c10.23,20.14,18.66,36.43,29.82,36.21,9.59-.19,16.62-26.67,12.37-44S127.94,78.7,111.93,87.4Z"/><path class="j" d="M129.31,137.3c5.13-2.78,12.05-1.15,17.33.92-2.44,8.65-6.55,15.15-11.28,15.24-4.58.09-8.69-2.6-12.66-7.2A13.47,13.47,0,0,1,129.31,137.3Z"/><path class="k" d="M148.3,112.18a57.09,57.09,0,0,1,.45,14.37c-5.37-1.95-12.69-3.56-19.62-1.53a18.69,18.69,0,0,0-12.56,12.64c-2.23-3.61-4.46-7.7-6.75-12.09a23.33,23.33,0,0,1,15.51-13.94C132.76,109.6,141.4,110.37,148.3,112.18Z"/><path class="l" d="M118.13,90.72a36.94,36.94,0,0,1,17.07-1.4,34,34,0,0,1,10.13,13.12c-5.29-1.65-15.6-3.27-23.49-.57-10.65,3.64-13.93,12.32-15.43,17.07l-.86-1.69a30.68,30.68,0,0,1-3.12-9.29C104.17,102.21,108.81,93.88,118.13,90.72Z"/><path class="e" d="M77.31,58.78c6.77-4.69,14.84.69,17.7,7.81-3.12-2.68-8.3-6.49-12.12-6.2-4.62.36-6.78.72-10.28,3.45A17.76,17.76,0,0,1,77.31,58.78Z"/><path class="m" d="M150.14,47.11c11.29-6.35,26.45-11.09,33.55-6.64s-3.05,14.07-3.05,14.07C179.9,58.78,170,71.32,165.18,71.3s-5.58,2.67-9.53,4.55a11.78,11.78,0,0,1-10.93-.19c-3.52-1.7-21.66-.73-27.66-.45s-10.3-4.11-10.3-4.11C114.45,69.12,138.86,53.46,150.14,47.11Z"/><path class="n" d="M106.77,71.09s4.3,4.39,10.3,4.11,24.14-1.25,27.66.45a11.78,11.78,0,0,0,10.93.19c4-1.87,4.71-4.57,9.53-4.55s14.72-12.52,15.47-16.76c0,0,10.16-9.62,3.05-14.07s-22.27.29-33.55,6.64S114.45,69.12,106.77,71.09Zm46.48-20.76c-2.82,1.91-12.65,9.31-14.77,10.24s-2.4-1.51-2.56-2.66.51-1.48.51-1.48c10.57-7.2,23.74-13.27,24.47-12.83S156.07,48.41,153.25,50.33Zm-2.37,2.82c1.77-1.26,2.88-1.22,4.79-.16,3,1.65,9.59,2.43,9.59,2.43-7.87,3-10.84,7-12.49,8.47s-3.65.93-7.91,2-6.67,3.74-8.61,4.75-3.06.12-4.12-.31-6.31-1.48-6.31-1.48C130.1,67.24,149.1,54.41,150.88,53.15Zm28,.48c-3.41.88-17.28,2.42-22.18-1.16,0,0-2-1.14-1.17-2.24s8.79-7.93,13.15-9.24,13.75-2.76,16.27,1.63S182.33,52.75,178.91,53.63ZM153.07,66.06c-.9-2.36,5.29-6.63,9.3-8.69s12.51-2.36,15.45-2.56.95,1.9.62,2.43c-5.38,8.79-10.66,13.21-15.77,13.39C159.21,70.77,154,68.42,153.07,66.06ZM137.25,74a9.73,9.73,0,0,1-1.18-2.09c-.18-.7,6-4.82,10.4-5.74s5.63.4,7.06,1.73,7.06,3.5,7.06,3.5c-1.65.75-2.9,3.26-6.89,4.58s-7.21-.5-9.34-1.06A59.82,59.82,0,0,0,137.25,74Zm-27.76-1.55a21.48,21.48,0,0,0,6.07,0c2.56-.54,8.84-3.1,12.34-2.38s6.74,1.71,8.75,4.2c0,0-7.36-.12-11.16,0S113.87,76.14,109.49,72.43Zm-.77-.89c4.61-1.73,24.43-13.28,25.41-13.68s1.57,1.91,2,2.95-.15,1.7-5.73,4.71a75.09,75.09,0,0,1-16.14,6.22A13.13,13.13,0,0,1,108.73,71.54Z"/><path class="m" d="M140.81,29.18c10.63-14,23.37-22.53,33.62-26.61s16.06-3,17.34,1.27,5.57,26.18-5.45,30-26.54,7.6-34.45,12.89-33.36,27.2-45.05,24.58L106,69S130.18,43.2,140.81,29.18Z"/><path class="n" d="M106,69l.82,2.29C118.51,73.92,144,52,151.87,46.73s23.43-9.08,34.45-12.89,6.72-25.68,5.45-30-7.09-5.35-17.34-1.27-23,12.59-33.62,26.61S106,69,106,69Zm36.58-34.3c-.78,3-3.57,10.47-6.3,13.41S122.39,62,112.09,66.19a29.14,29.14,0,0,1-3.1.73s13.08-13,16.12-16.2S141.2,31,142.35,28.51A12.56,12.56,0,0,1,142.57,34.71Zm6.27-13.87S150.23,23.54,152,24s4.34.7,4.13,2.73-3.3,7.06-5.85,9.21-9.46,6.63-9.46,6.63,2.59-6.42,2.9-9.85-.54-5.3-.13-5.83S148.84,20.84,148.84,20.84Zm7.75,8.68c.13-1.07,0-4,.41-4.79s8.14-5.06,11-7.8c0,0,1.91-1.79,3.45-1.53a5.29,5.29,0,0,1,3.87,4c.43,2.15,1.56,4.34-1.19,5.58s-9,4.28-11.15,6.34-3.05,2.41-4,1.42S156.46,30.59,156.59,29.52Zm28-24.75c.17,1.77-3.15,5.22-5.37,6.27s-7.1,2.41-8.87,3.4c-3.66,2-6.58,5.76-11.59,8.16s-7.57-.1-8.45-1.83,7.75-8.31,11.58-11,11.64-6.13,17-7.51S184.38,3,184.55,4.77Zm8.06,10.73s-6.64-3.92-9.84-3.71-1.85-1-.79-1.72,5.3-5.77,2.25-8.94c0,0,4.61-.67,6.16,1.75S192.61,15.51,192.61,15.51Zm-2.5,9.66c-3.07,1.18-12.51.61-13.28-1.29S176.31,19,175,17s-3-2.33-2.66-2.67,6.41-2.3,9.9-1.84,9.84,3.24,10.33,5.07a6.11,6.11,0,0,1,.17,3C192.55,22.59,193.18,24,190.11,25.17Zm-29.4,9.9c.38-1.54,9.21-8.53,14-9.36s11.73,2.8,17.26-.08c0,0-1.57,5.12-4.6,6.88s-20.42,6.93-22.71,7.2S160.32,36.61,160.71,35.07ZM138.36,50.28c.33-1.83-.16-4.59,4.49-7.92s9.56-6.7,11.55-9.84c0,0,1-2.14,3.05-.28s3.79,5.71,3.76,7.17-2.43,2.25-7.26,5.29-13,9.37-14,10.06S138,52.11,138.36,50.28ZM107,70.06c-.07-.66.68-2.25,2.82-2.59s10.36-3.66,17.91-10.25a87.16,87.16,0,0,0,8.27-8s2.09-2.83,1.87-.37a16.36,16.36,0,0,0,.48,6c.36.89-2,2.92-3.14,3.72s-17.47,12.43-25.1,12.4C110.12,70.9,107.07,70.72,107,70.06Z"/><path class="m" d="M50.42,71.63c-11.91-1.54-26.59-.35-31.16,5.93s7.51,11,7.51,11c2.11,3.38,15,10.74,19.11,9s5.72.36,9.77.61a10.92,10.92,0,0,0,9.33-4c2.43-2.68,18.37-8.14,23.63-10S96,77.2,96,77.2C88.75,78.18,62.32,73.17,50.42,71.63Z"/><path class="n" d="M50.42,71.63c-11.91-1.54-26.59-.35-31.16,5.93s7.51,11,7.51,11c2.11,3.38,15,10.74,19.11,9s5.72.36,9.77.61a10.92,10.92,0,0,0,9.33-4c2.43-2.68,18.37-8.14,23.63-10S96,77.2,96,77.2C88.75,78.18,62.32,73.17,50.42,71.63ZM40,72.33c.48-.62,13.91,0,25.49,2.55,0,0,.69,0,1,1.09s.85,3.24-1.28,3.18-13.16-3-16.25-3.68S39.48,73,40,72.33Zm38.92,9.58S74.73,84.64,74,85.38s-1.42,1.89-3.43,1.7-5-1.65-9.05-1.1-5.55,1.74-7.5,1A28.45,28.45,0,0,0,40.3,84s5.41-3,7.41-5.42c1.28-1.57,2.22-2,4.18-1.52S74.64,82,78.88,81.91Zm-60-2.06c.64-4.65,9.23-6.66,13.42-7s13.43,2.72,14.51,3.38-.23,2.33-.23,2.33c-3,4.78-15.43,8.26-18.67,8.69S18.26,84.5,18.9,79.85ZM47.81,96.21c-4.46,1.61-10.54-.35-18.21-6-.47-.35-2.91-1.46-.31-2.31s10-3.53,14.17-3.15,11,1.9,11,4.25S50.83,95.12,47.81,96.21ZM65,93.54c-1.64,1.21-3.78,3.9-7.67,4.15s-5.83-1.47-7.51-1.55c0,0,4.09-3.83,4.86-5.46s1.37-3.21,5.47-3.94S71,87.4,71.12,88.06a9.06,9.06,0,0,1-.29,2.21A55.39,55.39,0,0,0,65,93.54Zm16-7.19c-3.29,1.25-9.58,3.91-9.58,3.91.86-2.84,3.31-4.81,6.07-6.65s9-1.81,11.44-2.24a20,20,0,0,0,5.24-2.07C91.68,84,84.29,85.1,81,86.35Zm8.8-6a69.62,69.62,0,0,1-16,.25c-5.85-.66-6.6-1-6.57-2.07s-.26-3.25.72-3.24,22,3.06,26.59,2.95A12.16,12.16,0,0,1,89.8,80.38Z"/><path class="m" d="M52.63,52.81c-14-8.37-27.92-11.27-38.14-11.22S-.38,44.55,0,48.7,4.32,73.14,15.12,72.6s25.46-2.67,34.1-.87,38.13,11.82,47.27,5.51L96.4,75S66.64,61.17,52.63,52.81Z"/><path class="n" d="M52.63,52.81c-14-8.37-27.92-11.27-38.14-11.22S-.38,44.55,0,48.7,4.32,73.14,15.12,72.6s25.46-2.67,34.1-.87,38.13,11.81,47.27,5.51L96.4,75S66.64,61.17,52.63,52.81Zm-1.56,0c1.85,1.7,18.83,11.43,22.54,13.11S93.1,74.22,93.1,74.22a26.82,26.82,0,0,1-2.92.45c-10.3,0-23.69-5.57-27.06-7.15s-8.35-7-10.08-9.35A11.63,11.63,0,0,1,51.08,52.77Zm-1.6-1c.53.31.46,2.21,1.91,5.06s5.91,7.46,5.91,7.46-7.5-1.45-10.43-2.41S39.52,57.67,38.63,56s1.27-2.8,2.6-3.78,1.6-3.78,1.6-3.78S48.94,51.46,49.48,51.77ZM38.25,62.18c-.44,1.17-1.33,1.17-3.9.15s-9-1.47-11.78-1.58-2.58-2.39-3-4.39a4.9,4.9,0,0,1,1.93-4.8c1.23-.76,3.5.12,3.5.12,3.37,1.38,11.48,2.41,12.13,2.9s1.54,3.1,2,4S38.68,61,38.25,62.18ZM10.55,42.82c5.11-.69,13-.48,17.24.55s13.95,3.69,13.79,5.48-1.48,4.82-6.63,4.5-9-2.51-12.8-3c-1.87-.23-6.54.3-8.81.16S7,48.57,6.55,47,5.45,43.5,10.55,42.82ZM.88,47.4c.49-2.62,4.69-3.64,4.69-3.64-1.53,3.78,3.87,6.65,5,6.9s2.75.82-.08,1.75S3.34,59,3.34,59,.39,50,.88,47.4ZM5,63.38a5.68,5.68,0,0,1-.88-2.6c-.22-1.74,4.29-6.34,7.12-7.94s8.74-2,9.15-1.85S19.44,52.06,19,54.2s.82,4.65.82,6.55-7.92,5.67-11,5.71S5.85,65.09,5,63.38Zm30.84,6.74c-2.06.57-18.81,2.16-22,1.69s-6.34-4.32-6.34-4.32c5.75.55,10.48-5,14.87-5.92s14.4,2,15.27,3.2S37.87,69.56,35.81,70.12Zm26.43,4.39c-1.09-.26-10.3-2.87-15.51-3.81s-7.54-.79-8.08-2-.39-5.15.74-7.47,2.72-.81,2.72-.81c2.79,2,8.2,3.21,13.34,4.45s5.69,3.79,6.6,5.25S63.33,74.76,62.24,74.51ZM93.51,78c-6.55,2.67-24.61-1.67-25.89-2s-4-1.22-4-2.11A15.14,15.14,0,0,0,62,68.68c-1-2,1.74-.33,1.74-.33a81,81,0,0,0,9.9,4c8.78,3,17,3,19,2.6s3.15.66,3.32,1.25S93.51,78,93.51,78Z"/><path class="e" d="M99.66,99.64l1.92-1c-.11,10.16,11.47,22.54,11.47,22.54.05,3.25-5.07,5.07-5.07,5.07C99.56,117.18,99.66,99.64,99.66,99.64Z"/><path class="e" d="M112,122.53s5.1,12.44,6.5,20.71c0,0-3.43,2.39-6.5,1.2,0,0-.52-17.54-3.17-20.66Z"/><path class="e" d="M117.29,143.08s2.09,9.89,4.32,12.49c0,0-2.66,2.29-5,1.14,0,0-1.93-10.93-2.13-14.62Z"/><path class="e" d="M120,155.78s1.72,5.46,2.71,7l-2,.78a75.66,75.66,0,0,1-2.91-8.12Z"/></svg>