<svg xmlns="http://www.w3.org/2000/svg" xmlns:xlink="http://www.w3.org/1999/xlink" viewBox="0 0 117.71 223.94"><defs><style>.a{fill:url(#a);}.b{fill:url(#b);}.c{fill:#fff;}.d{opacity:0.2;}.e{fill:#405194;}.f{fill:url(#c);}.g{fill:url(#d);}.h{fill:url(#e);}.i{fill:url(#f);}.j{fill:url(#g);}.k{fill:url(#h);}.l{fill:url(#i);}.m{fill:#6dfff8;opacity:0.3;}.n{fill:#fffff5;opacity:0.5;}</style><linearGradient id="a" x1="1713.29" y1="119.86" x2="1722.73" y2="246.53" gradientTransform="translate(-1637.69)" gradientUnits="userSpaceOnUse"><stop offset="0" stop-color="#ffe71f"/><stop offset="1" stop-color="#ff8602"/></linearGradient><linearGradient id="b" x1="1708.51" y1="160.77" x2="1696.31" y2="185.16" gradientTransform="translate(-1637.69)" gradientUnits="userSpaceOnUse"><stop offset="0" stop-color="#fff78c"/><stop offset="1" stop-color="#e76008"/></linearGradient><linearGradient id="c" x1="76.94" y1="89.48" x2="105.48" y2="89.48" gradientUnits="userSpaceOnUse"><stop offset="0" stop-color="#6a6fb8"/><stop offset="1" stop-color="#4a3299"/></linearGradient><radialGradient id="d" cx="101.88" cy="87.2" r="9.78" gradientUnits="userSpaceOnUse"><stop offset="0" stop-color="#42def7"/><stop offset="1" stop-color="#1b3d71"/></radialGradient><linearGradient id="e" x1="79.62" y1="106.44" x2="49.54" y2="86.66" gradientUnits="userSpaceOnUse"><stop offset="0" stop-color="#6a6fb8"/><stop offset="1" stop-color="#1b3d71"/></linearGradient><linearGradient id="f" x1="52.45" y1="143.23" x2="16.81" y2="108.21" gradientUnits="userSpaceOnUse"><stop offset="0" stop-color="#f5b216"/><stop offset="1" stop-color="#f23b0a"/></linearGradient><linearGradient id="g" x1="30.07" y1="159.42" x2="1.02" y2="127.28" xlink:href="#e"/><linearGradient id="h" x1="47.04" y1="144.08" x2="17.99" y2="111.94" xlink:href="#e"/><linearGradient id="i" x1="63.01" y1="129.65" x2="33.96" y2="97.51" xlink:href="#e"/></defs><title>Ресурс 1</title><path class="a" d="M107.74,185c0,6.29-4.46,14-9.91,17.15L62.39,222.6c-5.45,3.14-9.9.57-9.9-5.72V176c0-6.29,4.45-14,9.9-17.16l35.44-20.46c5.45-3.15,9.91-.58,9.91,5.72Z"/><path class="b" d="M52.49,216.88V176c0-6.29,4.45-14,9.9-17.16l35.44-20.46c2.4-1.39,4.6-1.66,6.32-1h0l-6-3.66c-1.8-1.14-4.35-1-7.16.58L55.57,154.72c-5.45,3.15-9.9,10.87-9.9,17.15v40.92c0,3.23,1.17,5.47,3,6.47l6.55,3.93h0C53.55,222.12,52.49,219.95,52.49,216.88Z"/><path class="c" d="M68.78,194.5,66.23,196v-8.58l-4.77,2.76v8.58L58.9,200.2V180.32l2.56-1.48v7.79l4.77-2.76v-7.79l2.55-1.47Z"/><path class="c" d="M76.48,190.06l-2.56,1.48V175.16L70.64,177v-3.51l9.11-5.26v3.51l-3.27,1.89Z"/><path class="c" d="M86.71,184.15l-2.9-13.93-.07,0q.15,4.67.16,6.26v9.25L81.6,187.1V167.21l3.48-2,2.85,13.56.05,0,3-17,3.48-2v19.89L92.11,181v-9.41c0-.44,0-1,0-1.54s0-2.15.11-4.69l-.07,0L89.05,182.8Z"/><path class="c" d="M97.53,177.9V158l2.56-1.48v16.4l4.89-2.82v3.48Z"/><path class="d" d="M69.47,170.14s-.5-5.29-.62-5.38-2-1.35-2-1.35l1.32-7.94-4-5.69,2.68-1.55,4.42,5.9v13.09Z"/><path class="d" d="M58.53,159.19l-.63,3.46s-1.47,10.11-1.72,10.14S53.64,174,53.64,174l-1.15,2.56-1.46,2V176.1l5.15-18.62L60,152.17l1.64-.95S59.41,158.06,58.53,159.19Z"/><path class="d" d="M104.2,151.29,103,152l-2.44-3.2-1.74-.29-1-10.14L88,136l3-1.71,9.07,1.71s2.19,11.73,2.22,11.89S104.2,151.29,104.2,151.29Z"/><path class="e" d="M100.87,71.93c-.43-1.29-2.52-3.44-3.26-3.07s-5.66,9-5.66,9l1.78,1.27s3.69-7.23,4.06-7.91,1.66,1,1.66,1l3.44,12.23h.74l-1.17,4.31,1.6.67.8-5.1S101.3,73.22,100.87,71.93Z"/><path class="e" d="M101.55,83s9-6.58,11.06-6,5.1,12.67,5.1,12.67l-.31,11h-2l1.17-10.94-.43.43s-2.52-10.08-4-10.88-10.57,6-10.57,6Z"/><path class="f" d="M105.42,100.7s-.45-19.35-10-26S73.7,81.83,77.73,91.79c4.42,10.93,10.95,13.92,23.39,14.17C105.35,106,105.66,102.85,105.42,100.7Z"/><path class="g" d="M96.79,79.42c2.81,0,5.45,2.11,7.5,8,2,5.71,1.27,13.27-1.43,12.85-3.74-.57-8.57-6.74-10.13-13S94,79.44,96.79,79.42Z"/><path class="h" d="M80.91,88.06a18.29,18.29,0,0,0-11.82-4.15c-6.88.26-17.47,11.2-16.32,19.4s10.76,16.5,23,13.58,17.82-13.32,15.14-22C89.5,90.3,84.34,90.28,80.91,88.06Z"/><path class="e" d="M90.93,94.94c-1.44-4.64-6.59-4.66-10-6.88L80.78,88c5.34,5.73,4.77,17.43-3.24,19.78-7.27,2.13-21.35-7.15-24.3-9.17a11.1,11.1,0,0,0-.47,4.75c1.15,8.2,10.76,16.5,23,13.58S93.61,103.58,90.93,94.94Z"/><path class="e" d="M71.73,115.56l-1.9-1c.11,10-11.3,22.22-11.3,22.22-.05,3.21,5,5,5,5C71.83,132.84,71.73,115.56,71.73,115.56Z"/><path class="e" d="M59.54,138.11s-5,12.26-6.41,20.41c0,0,3.39,2.36,6.41,1.18,0,0,.51-17.28,3.13-20.36Z"/><path class="e" d="M54.36,158.37s-2.06,9.74-4.26,12.31c0,0,2.62,2.26,5,1.13,0,0,1.9-10.77,2.1-14.41Z"/><path class="e" d="M51.69,170.88A50.05,50.05,0,0,1,49,177.81l2,.77a74.8,74.8,0,0,0,2.87-8Z"/><path class="e" d="M93.28,116.6a21.36,21.36,0,0,1-7.71,1.6c-4.37.07-3.49-8.81-3.49-9.28l-2,.47s-1.82,11.72,2,13.46,12.15.51,12.15.51C97.14,120.17,93.28,116.6,93.28,116.6Z"/><path class="e" d="M93.35,118.06,92.84,121c4.8,1.82,4.29,15.57,4.29,15.57a5.75,5.75,0,0,0,5.46-3C100.56,119.08,93.35,118.06,93.35,118.06Z"/><path class="e" d="M101,134.43l-2.18-.29c.87,1.89,1.24,13.24,1.24,13.24a7.13,7.13,0,0,0,4.15-1.89Z"/><path class="e" d="M102.6,145.57h-1.46c0,3.57,3,6.41,3,6.41a1.92,1.92,0,0,0,1.53-1.53C103.47,148.84,102.6,145.57,102.6,145.57Z"/><path class="e" d="M75.9,114.83l-1.81.54c2.52,6.36-4,16.72-4,16.72,1.15,1.08,4.94,1.35,4.94,1.35C81.39,123.16,75.9,114.83,75.9,114.83Z"/><path class="e" d="M74.09,131.89H71.5s-2.84,11.78-2.64,20a6.7,6.7,0,0,0,6.43,0S72.08,135.48,74.09,131.89Z"/><path class="e" d="M73.13,150.88l-3.32.37s.39,8.87-1,12.19c0,0,1.7,1.22,4.68.27C73.53,163.71,73.74,153.56,73.13,150.88Z"/><path class="e" d="M72.38,161.79,70.49,163s-.21,5-1,7.18l2,.27A73.19,73.19,0,0,0,72.38,161.79Z"/><path class="e" d="M10.16,144.18s-5.61,5.34-5.45,5.59,3.41,3.65,3.41,3.65,4.33-6.18,5.25-8.45Z"/><path class="e" d="M7.07,150a74.85,74.85,0,0,1-7.07,5L.73,157a53,53,0,0,0,8.1-6Z"/><path class="i" d="M63.49,105.95s10.21,16-8.19,28.94c-18.19,12.83-33,23.14-42.65,17.81-8.27-4.58-2.2-30.89,9.52-44.07S53.55,91,63.49,105.95Z"/><path class="j" d="M25.36,141.41c-3.19-4.78-10-6.56-15.52-7.18C8,142.89,8.57,150.44,12.65,152.7s8.77,1.74,14.35-.44A13.28,13.28,0,0,0,25.36,141.41Z"/><path class="k" d="M20.39,110.78a56.1,56.1,0,0,0-7,12.31c5.58.78,12.69,2.74,17.8,7.71a18.42,18.42,0,0,1,5.12,16.8c3.6-2.12,7.43-4.66,11.45-7.43a23,23,0,0,0-7.1-19.29C35.12,115.68,27.24,112.38,20.39,110.78Z"/><path class="l" d="M56.56,106A36.38,36.38,0,0,0,42.34,96.9a33.44,33.44,0,0,0-14.86,6.76c5.36,1,15.1,4.34,20.72,10.32,7.6,8.08,6.46,17.15,5.58,22l1.53-1.07a30.19,30.19,0,0,0,7-6.66C63.43,122.41,63.22,113,56.56,106Z"/><path class="e" d="M95.42,74.73c-6.67-4.63-14.63.68-17.44,7.7,3.08-2.64,8.18-6.4,11.94-6.11,4.56.35,6.68.71,10.13,3.39A17.55,17.55,0,0,0,95.42,74.73Z"/><path class="m" d="M44.69,54c-6.37-9.07-16.82-16.46-25.07-11.48s-4.48,18.11-4.48,18.11c-1.49,5.44.59,22.23,4.68,22.65s3.38,3.9,5.78,6.64,5.52,2.59,9.35.75,18.7,1,23.64,1.95,10.78-4.27,10.78-4.27C63.85,85.14,51.06,63.06,44.69,54Z"/><path class="n" d="M44.69,54c-6.37-9.07-16.82-16.46-25.07-11.48s-4.48,18.11-4.48,18.11c-1.49,5.44.59,22.23,4.68,22.65s3.38,3.9,5.78,6.64,5.52,2.59,9.35.75,18.7,1,23.64,1.95,10.78-4.27,10.78-4.27C63.85,85.14,51.06,63.06,44.69,54Zm-7.33-5.44C38.2,48.07,46.3,57,51.63,67c0,0,.41.48-.31,1.92s-2.18,4.5-3.51,3.14-5.92-11.64-7.35-14.33S36.53,49,37.36,48.55Zm17,35.24a61.87,61.87,0,0,0-6.08,1.3c-1.11.45-2.51,1.47-3.64,0s-1.84-5-4.9-6.81S34.68,77.1,34,75s-1.14-7.41-6.32-11.88c0,0,6-.39,9.34-2.21,2.15-1.16,3.11-1.12,4,.64S51.55,81.33,54.34,83.79ZM17.47,45.12c4.34-5.34,11.56-2.64,14.59-.58S38.41,56,38.55,57.44s-2.12,2.74-2.12,2.74c-5.95,4.09-16.91.87-19.36-.55S13.14,50.45,17.47,45.12Zm4.81,37.55C18,82,15.79,75.88,15.66,64.25c0-.71-.64-3.55,1.75-3s9.42,1.69,11.79,4.66,5.46,8.95,3.51,11.86S25.14,83.14,22.28,82.67Zm13.34,7.08c-2.08.5-5.72,2.52-8.44.48s-2.51-5.32-3.53-6.43c0,0,5.86-2.24,7.74-3.8s3.59-3.13,6.85-1.56,6.42,7.36,5.92,8.23a21.65,21.65,0,0,1-2.05,2.54A39.68,39.68,0,0,0,35.62,89.75ZM52,90.52c-3.17-.45-9.47-1-9.47-1,3-3,6.19-3.92,9.52-4.52s7.35,3.22,9.25,4.14,5.12.61,5.12.61C60.82,94.08,55.13,91,52,90.52Zm10.7-2c-2.13-1-7.32-5-10.53-9.35s-3.39-5.23-2.48-6.5,2.57-4.15,3.19-3.55,11.6,17,14.63,19.65A8,8,0,0,1,62.67,88.48Z"/><path class="m" d="M56.61,35.81C53,18.3,45.28,7.85,37.88,3s-13-3.4-16,2.11S5.95,38.49,14.15,43s20.42,8.91,25.24,15.4S57.65,92,69.15,88.36l1.69-2.94S60.17,53.32,56.61,35.81Z"/><path class="n" d="M56.61,35.81C53,18.3,45.28,7.85,37.88,3s-13-3.4-16,2.11S5.95,38.49,14.15,43s20.42,8.91,25.24,15.4S57.65,92,69.15,88.36l1.69-2.94S60.17,53.32,56.61,35.81ZM55.52,35c0,3.08,4.65,23.77,6,27.72s7.53,20.13,7.53,20.13A14,14,0,0,1,66.61,82C59.19,77,53.89,63.4,52.69,59.75s-.56-13,0-16.86A27.64,27.64,0,0,1,55.52,35ZM55.14,33c.14.66-1.39,3.06-2.57,7.41S51,52.79,51,52.79a80.24,80.24,0,0,1-5.63-8.15c-1.37-2.66-2-9-1.34-11.53s3.1-3,4.82-3.59S53,25.45,53,25.45,55,32.29,55.14,33Zm-16.2,7.91c-1.23,1.29-1.87.85-2.93-1.69s-5.33-6.23-7.26-7.73,0-4.31,1.29-7.05,3.65-4.85,5.13-5.22S37.6,21,37.6,21c1.35,3.4,6.39,8.65,6.47,9.6s-1.31,4.72-1.65,6.07S40.16,39.57,38.94,40.86ZM34.08,2.63c4.21,1.59,9.74,5.68,12,9.05s7.17,11.48,5.66,13.7-4.83,5.46-8.28,2.56-4.49-7.55-6.89-10c-1.16-1.2-4.94-2.79-6.47-4.06S27.05,8.3,27.95,6,29.87,1,34.08,2.63ZM23.54,3.82a6.7,6.7,0,0,1,6.22-2.4c-4,4.11-2.4,10.4-1.76,11.29s1.34,2.38-1.42,2.21-10.32,5-10.32,5S21.14,6.95,23.54,3.82ZM14,26.29a13.09,13.09,0,0,1,1.39-3.77c1.2-2.33,8-6.05,11.32-6.73s7.87,1.64,8,2.06-1.51.93-3.49,3.46-3,6.36-4.52,8.79-10.12,3.43-12.36,2S13.33,28.91,14,26.29ZM31,49.86c-1.93-.27-15.23-6.34-17.18-8.5s-1.2-8.62-1.2-8.62c3.71,3.49,11.43-1.32,15.32-.39s8.8,9.55,8.5,11.5S32.91,50.14,31,49.86ZM46.61,68.28c-.59-.85-5.19-8.66-8.21-12.39s-4.82-4.66-4.23-6.51a30.7,30.7,0,0,1,6.36-9.21c2.62-2.42,2.6.27,2.6.27.45,3.93,3.4,8.08,6.14,12.17s1.14,7.62.66,9.93S47.19,69.14,46.61,68.28ZM66.38,87.95c-6.81.26-16.43-14.06-17.13-15S47.33,69.41,48,68.27A36.68,36.68,0,0,0,51,60.68c.84-3.12,1.51.42,1.51.42a64,64,0,0,0,4,10c4,8.16,9.87,12.14,11.63,12.51s1.76,2.37,1.42,3.2S66.38,87.95,66.38,87.95Z"/><path class="m" d="M79.94,71.51c0-7.11-4.25-14.13-13.65-13S52.56,68.67,52.56,68.67c-4.24,3-12,13.89-8.95,15.1s.52,3.21.91,5.46,3,2.9,7.07,2.66,14.39,5,17.84,6.76,11-.11,11-.11C77.82,95.28,80,78.62,79.94,71.51Z"/><path class="n" d="M79.94,71.51c0-7.11-4.25-14.13-13.65-13S52.56,68.67,52.56,68.67c-4.24,3-12,13.89-8.95,15.1s.52,3.21.91,5.46,3,2.9,7.07,2.66,14.39,5,17.84,6.76,11-.11,11-.11C77.82,95.28,80,78.62,79.94,71.51Zm-2.82-5.09c.94-.1,2.45,7.3,1.05,14.79,0,0,.06.39-1.33,1.12s-4.27,2.27-4.56,1.12,1.78-8.59,2.14-10.59S76.18,66.52,77.12,66.42ZM71,92.21s-4.46-.64-5.6-.63-2.84.32-2.93-.84,1.36-3.55-.1-5.36S59,83.45,59.62,82s3.24-4.85,1.6-8.83a33.83,33.83,0,0,0,8.72.83c2.38-.22,3.12,0,2.83,1.33S70.11,90,71,92.21ZM63.11,59.62c6.46-2.28,10.74,1.09,12,3.07s-1.32,8.56-2,9.51-3.23,1.19-3.23,1.19c-7.06,1.13-14-3.43-15.19-4.89S56.65,61.91,63.11,59.62ZM45.92,84c-3-1.43-1.39-5.72,5-12.95.39-.44,1.48-2.35,3.1-1.46s6.6,3.26,6.83,5.65S60.22,82,57,83.38,47.94,84.95,45.92,84Zm6.71,7.52c-2-.18-6,.21-7-1.68s1-3.88.77-4.8a60,60,0,0,0,8.33-.53c2.37-.52,4.63-1.09,6.36.65s1,6.06.12,6.48-3.07,1.09-3.07,1.09A40.19,40.19,0,0,0,52.63,91.5Zm12.66,4.32c-2.29-1-7-2.82-7-2.82a23.16,23.16,0,0,1,10.16-.56c3,.41,4.08,3.72,5.09,4.73s3.75,1.58,3.75,1.58C70.39,100.1,67.57,96.84,65.29,95.82ZM75,97.07a14.65,14.65,0,0,1-3.19-8.26c-.14-3.44.21-4,1.66-4.6s4.39-2,4.55-1.45-.26,13.27.71,15.59C78.72,98.35,76.15,98.18,75,97.07Z"/><path class="m" d="M99.67,63.07c7-11.67,6.6-20,3.41-24.72s-8.52-5.16-14-2.45S57.6,52.82,61.63,57.55,73,67.86,73.21,73s-4.21,25.07,7,25.52l3-1.42S92.71,74.73,99.67,63.07Z"/><path class="n" d="M99.67,63.07c7-11.67,6.6-20,3.41-24.72s-8.52-5.16-14-2.45S57.6,52.82,61.63,57.55,73,67.86,73.21,73s-4.21,25.07,7,25.52l3-1.42S92.71,74.73,99.67,63.07Zm-.43-.75c-1.73,1.9-9.6,15.79-10.72,18.56s-5.25,14.22-5.25,14.22A8.19,8.19,0,0,1,81.78,94c-3.15-4.83.25-14.5,1.33-17S90,68.77,92.58,66.53A37.38,37.38,0,0,1,99.24,62.32Zm.86-1.36c-.26.44-2.83,1.56-6.21,4a84.11,84.11,0,0,0-8.22,7.32,33.91,33.91,0,0,1,.05-6.36c.39-2,3.41-6,5.39-7.45s4.15-1.11,5.88-1.09,5.57-1.56,5.57-1.56S100.35,60.52,100.09,61ZM82.69,62c-1.71.51-2,.09-1.4-1.73s-.77-5.11-1.48-6.49,2.42-2.67,5-4.06a15.65,15.65,0,0,1,7-2c1.39.12.91,1.72.91,1.72-.82,2.42.27,6.85-.2,7.46a55.69,55.69,0,0,1-4.72,3.37C86.79,61,84.39,61.53,82.69,62Zm17.54-24.78c2.48,2,4.61,5.8,4.53,8.42s-.69,8.79-3.15,9.81-6.92,2.24-8.07-.36.64-5.73.1-7.82c-.26-1-2.39-2.88-2.91-4s.68-4.15,2.66-5.33S97.74,35.28,100.22,37.25Zm-9.11-1.74a8.33,8.33,0,0,1,6.33,0c-5.54,1.59-7.75,5.87-7.73,6.57s-.26,1.79-2.38,1-11.06.66-11.06.66S87.44,36.88,91.11,35.51ZM70.91,47.17a17.31,17.31,0,0,1,3.23-2C76.4,44,84,43.31,87,43.67s5.38,2.86,5.28,3.16-1.73.22-4.73,1.32-6,3.22-8.54,4.38-10-.26-11-1.66S68.88,48.63,70.91,47.17Zm.37,18.57c-1.39-.62-8.64-7.5-9-9.3s3.87-5.61,3.87-5.61c1,3,9.9,1.87,12.49,3.36s1.7,8,.36,9.11S72.66,66.36,71.27,65.74ZM73.46,80.8c0-.67.7-6.58.37-9.59s-1.25-4,.26-5A47.27,47.27,0,0,1,84.35,62c3.45-.88,1.92.78,1.92.78-1.84,2.54-1.81,5.8-1.91,9s-3.35,5-5,6.3S73.45,81.47,73.46,80.8Zm4.82,16.81C72.68,96.17,73,85.05,73,84.28s.42-2.61,1.62-3.16a50.38,50.38,0,0,0,6.6-4c2.42-1.74,1,.61,1,.61a35.34,35.34,0,0,0-2.39,7.1c-1.4,6,1.1,9.83,2.3,10.47s.08,1.88-.66,2.31S78.28,97.61,78.28,97.61Z"/></svg>