<svg xmlns="http://www.w3.org/2000/svg" xmlns:xlink="http://www.w3.org/1999/xlink" viewBox="0 0 55.69 93.49"><defs><style>.a{fill:url(#a);}.b{fill:url(#b);}.c{fill:#fff;}.d{opacity:0.2;}.e{fill:#405194;}.f{fill:url(#c);}.g{fill:url(#d);}.h{fill:url(#e);}.i{fill:url(#f);}.j{fill:url(#g);}.k{fill:url(#h);}.l{fill:url(#i);}.m{fill:url(#j);}.n{fill:#61acf4;opacity:0.3;}.o{fill:#ffe3c1;opacity:0.5;}</style><linearGradient id="a" x1="1668.54" y1="41.19" x2="1673.28" y2="104.84" gradientTransform="translate(-1637.69)" gradientUnits="userSpaceOnUse"><stop offset="0" stop-color="#a9fb00"/><stop offset="1" stop-color="#12de13"/></linearGradient><linearGradient id="b" x1="1666.14" y1="61.75" x2="1660.01" y2="74" gradientTransform="translate(-1637.69)" gradientUnits="userSpaceOnUse"><stop offset="0" stop-color="#d9ff89"/><stop offset="1" stop-color="#25ff26"/></linearGradient><linearGradient id="c" x1="35.58" y1="51.19" x2="36.29" y2="37.1" gradientUnits="userSpaceOnUse"><stop offset="0" stop-color="#f5c334"/><stop offset="1" stop-color="#f23b0a"/></linearGradient><linearGradient id="d" x1="31.93" y1="50.93" x2="32.56" y2="38.04" gradientUnits="userSpaceOnUse"><stop offset="0" stop-color="#6a6fb8"/><stop offset="1" stop-color="#1b3d71"/></linearGradient><linearGradient id="e" x1="41.97" y1="51.43" x2="42.6" y2="38.54" xlink:href="#d"/><linearGradient id="f" x1="47.25" y1="51.69" x2="47.88" y2="38.8" xlink:href="#d"/><linearGradient id="g" x1="27.7" y1="52.59" x2="18" y2="36.38" xlink:href="#d"/><radialGradient id="h" cx="8.47" cy="48.13" r="4.35" gradientUnits="userSpaceOnUse"><stop offset="0" stop-color="#42def7"/><stop offset="1" stop-color="#1b3d71"/></radialGradient><linearGradient id="i" x1="19.62" y1="54.92" x2="9.85" y2="47.18" gradientUnits="userSpaceOnUse"><stop offset="0" stop-color="#6a6fb8"/><stop offset="1" stop-color="#4a3299"/></linearGradient><radialGradient id="j" cx="16.44" cy="51.56" r="3.98" xlink:href="#h"/></defs><title>Ресурс 4</title><path class="a" d="M47,73.91a11,11,0,0,1-5,8.62L24.21,92.81c-2.74,1.58-5,.29-5-2.87V69.38a11,11,0,0,1,5-8.62L42,50.48c2.74-1.58,5-.29,5,2.87Z"/><path class="b" d="M19.24,89.94V69.38a11,11,0,0,1,5-8.62L42,50.48A3.72,3.72,0,0,1,45.2,50h0l-3-1.84a3.44,3.44,0,0,0-3.6.29L20.79,58.7a11,11,0,0,0-5,8.62V87.89a3.44,3.44,0,0,0,1.53,3.25l3.29,2h0A3.53,3.53,0,0,1,19.24,89.94Z"/><path class="c" d="M26.63,67.42l1-1.7L29.88,67a15.78,15.78,0,0,0-1.1,1.64Z"/><path class="c" d="M37,62.89,39.3,59l1,.57-2.15,3.72A3.22,3.22,0,0,0,37,62.89Z"/><path class="c" d="M32.77,64.22V60.29l1.39-.8v3.93a6.93,6.93,0,0,0-.69.32C33.22,63.87,33,64.05,32.77,64.22Z"/><path class="c" d="M42.42,65.86l-2.33,1.35a6.56,6.56,0,0,0-.22-1.48l2.56-1.48Z"/><path class="c" d="M27.06,73.12a10.85,10.85,0,0,0-.22,1.73L24.5,76.2V74.6Z"/><path class="c" d="M28.39,74.35a4.55,4.55,0,0,0,1.34,3.19c.69.82,1.59.79,1.59,2.21,0,1,0,3,0,3,0,.67.47.95,1.05.61l2.18-1.26a2.35,2.35,0,0,0,1.06-1.83v-3c0-1.42.9-2.42,1.59-4a12.79,12.79,0,0,0,1.34-4.73c0-3.24-2.28-4.55-5.07-2.93A11.22,11.22,0,0,0,28.39,74.35Zm.79.53a9.92,9.92,0,0,1,3.88-8.07c-3,4.8-2.33,7.17-2.33,7.17Z"/><path class="d" d="M30.5,54.43a14.32,14.32,0,0,1,0,2.67l1.41,4h1.15l1.72,4.19.72-.22,1.69,1-3.79-6.81Z"/><path class="d" d="M47,63s-2.75-3-2.84-3S43,60,43,60l-4-4.29-4.14-1.08-1.72-2.14,5.92,1,8,8.38Z"/><path class="d" d="M22.94,57.78l1.28,3a10.68,10.68,0,0,0,1.49,1.49,10.78,10.78,0,0,0,1,.81l1.06-.4a15.45,15.45,0,0,0,2.71.6,3.23,3.23,0,0,0,.83-.12v-.72l1.93.75.29-.34L31,61.72l-2.39,0Z"/><path d="M15.57,44.63l-.76.32a5.88,5.88,0,0,1,1.43,6.73,2.73,2.73,0,0,0,2.49.63C20.12,51.89,18.59,45.69,15.57,44.63Z"/><path class="e" d="M18.32,51l-1.07.28s2.44,5.18,4.9,6.55c0,0,1.46-.54,1.28-1.86C23.44,56,18.52,52.48,18.32,51Z"/><path class="f" d="M22.91,45.52c2,2.7,6.28,5.27,9.8,6.27,4.51,1.28,12.12,2.46,15.71-.57,4.83-4.08-5.39-12.56-8.55-14.14-4.41-2.22-10.77-2.83-15.25.64C22.28,39.53,21.07,43.07,22.91,45.52Z"/><path class="g" d="M32,35.28a15.72,15.72,0,0,0-6.15,1.65c3.2,1.32,8.09,3.61,7.45,7.85a9.37,9.37,0,0,1-3.55,5.93c.89.37,1.87.72,3,1.06.52.16,1,.3,1.52.42,2-1.49,3.88-3.33,4.52-5.76C40.14,41.15,36.21,37.73,32,35.28Z"/><path class="h" d="M46.16,49.15c1.56-2.75.32-5.76-1-8.45a26.07,26.07,0,0,0-5.28-3.64A14,14,0,0,0,38,36.26c2.86,2.46,5.58,6.71,4.42,10.21a13.07,13.07,0,0,1-5.19,6.3,25.12,25.12,0,0,0,4.7.12A10.53,10.53,0,0,0,46.16,49.15Z"/><path class="i" d="M45.14,52.48a7.65,7.65,0,0,0,3.28-1.27c.8-.72,1.33-2.12.84-4.2A8.39,8.39,0,0,1,45.14,52.48Z"/><path class="e" d="M20.3,49.32l-.76.32A5.88,5.88,0,0,1,21,56.37a2.72,2.72,0,0,0,2.49.63C24.86,56.58,23.33,50.39,20.3,49.32Z"/><path class="e" d="M23.05,55.71,22,56s2.44,5.18,4.9,6.55c0,0,1.46-.54,1.28-1.86C28.18,60.69,23.25,57.17,23.05,55.71Z"/><path class="e" d="M27.21,61l0,.86s3.15,1,4.28.75a2.76,2.76,0,0,0,.23-1.67S28,61.14,27.21,61Z"/><path class="e" d="M31.33,61.45v.71l2.4.91.12-.87A7.27,7.27,0,0,0,31.33,61.45Z"/><path class="e" d="M29.68,51.45s-4.52.64-6.69-2.68l-1-.11s1,5.25,7.58,5.12A2,2,0,0,0,29.68,51.45Z"/><path class="e" d="M29.63,52.12l-.44,1c1.77,1.15,3.27,7.11,3.27,7.11a2.32,2.32,0,0,0,2.38-.58C33.86,56.38,29.63,52.12,29.63,52.12Z"/><path class="e" d="M34.19,59.61l-.93.36a16.74,16.74,0,0,0,2,4.64,2.61,2.61,0,0,0,1.45-1.17A21.93,21.93,0,0,1,34.19,59.61Z"/><path class="e" d="M35.83,63.52l-.41.63a9.2,9.2,0,0,0,1.84,1.94l.44-.72A9.28,9.28,0,0,1,35.83,63.52Z"/><path class="j" d="M28.72,40.13A8.89,8.89,0,0,0,19.88,38C15.22,39.23,14.31,41.82,14,44s2.7,9.71,11,7.88,7.09-7.58,6.47-9A8.43,8.43,0,0,0,28.72,40.13Z"/><path class="e" d="M38.68,51.35s-6.84,1-10.1-2.69l-1,.36s2.44,4.55,11.34,5.34A8.2,8.2,0,0,0,38.68,51.35Z"/><path class="e" d="M38.6,52.09l-.43,1.38c2.19,1,5.31,6.28,5.31,6.28,1.29-.07,1.87-1.85,1.87-1.85C44.13,55.53,38.6,52.09,38.6,52.09Z"/><path class="e" d="M48.66,61.37A34.08,34.08,0,0,1,44.3,57.7L44,58.79A22.35,22.35,0,0,0,47.69,63,2.73,2.73,0,0,0,48.66,61.37Z"/><path class="e" d="M48,61.78l-.21.66a7,7,0,0,0,2.43,1.62l.24-.78A8.43,8.43,0,0,1,48,61.78Z"/><path class="e" d="M25,51.84c4.5-1,6.21-3.13,6.72-5.11-3.92,4.34-10.18.2-10-1.12s-2-2.15-3.82-3.26c-1.12-.68-.17-2.58.73-3.95C15.06,39.7,14.29,42,14,44,13.77,46.1,16.74,53.67,25,51.84Z"/><path class="k" d="M11.19,44.32a2.75,2.75,0,0,0-3.48,1.86C6.61,48.9,9,54.1,11.43,55.34S11.19,44.32,11.19,44.32Z"/><path class="l" d="M11.64,57.83S7.19,50.37,9.05,45.44s9.94-2.94,11,1.82c1.16,5.22-.51,8-5.1,11.31A2.16,2.16,0,0,1,11.64,57.83Z"/><path class="m" d="M16.44,46.88c-1.46.26-2.59,1.41-3,4.08s.88,5.72,2.25,5.29c1.88-.59,3.68-3.66,3.76-6.44S17.89,46.63,16.44,46.88Z"/><path class="e" d="M13.76,42.59a4.52,4.52,0,0,0-4.71,2.85c-1.86,4.93,2.59,12.39,2.59,12.39a2.46,2.46,0,0,0,1.25,1.12,24.37,24.37,0,0,1-2-11.63A6.09,6.09,0,0,1,13.76,42.59Z"/><path class="n" d="M13.42,21.09c-.86-5-.6-11.33,2-13.38s4.83,3,4.83,3c1.48.84,4.83,6.2,4.17,8s.25,2.43.42,4.15a4.66,4.66,0,0,1-1.53,4c-1.1,1.08-3.16,8-3.86,10.24a5.87,5.87,0,0,1-2.91,3.28C16.85,37.32,14.28,26.14,13.42,21.09Z"/><path class="o" d="M16.56,40.44a5.87,5.87,0,0,0,2.91-3.28c.7-2.27,2.76-9.16,3.86-10.24a4.66,4.66,0,0,0,1.53-4c-.17-1.72-1.07-2.36-.42-4.15s-2.7-7.15-4.17-8c0,0-2.23-5.07-4.83-3s-2.86,8.33-2,13.38S16.85,37.32,16.56,40.44ZM15,20.37c.34,1.31,1.78,6,1.84,6.86s-.88.69-1.33.6-.48-.39-.48-.39c-1.27-4.9-1.77-10.61-1.51-10.82S14.7,19.06,15,20.37Zm.74,1.26a1.48,1.48,0,0,1,.58-1.81,14.07,14.07,0,0,0,2.19-3.25A12.12,12.12,0,0,0,20,22.36c.34.82-.14,1.48-.3,3.21a11.85,11.85,0,0,0,.62,3.84,1.59,1.59,0,0,1-.67,1.49c-.3.34-1.39,2.15-1.39,2.15C18.24,31.24,16,22.46,15.77,21.63Zm3.92-10.37c-.13,1.39-1.4,6.76-3.39,8.1,0,0-.69.59-1,.14s-1.78-4.33-1.69-6.13.81-5.49,2.78-5.84S19.81,9.86,19.69,11.25Zm1.18,11.28c-1,0-1.76-2.85-2-4.62s.79-5,1.11-6.09.83-.1,1,.09c2.56,3.17,3.5,5.73,2.88,7.66C23.44,20.88,21.87,22.51,20.87,22.53Zm.84,6.95a3.86,3.86,0,0,1-.94.16c-.29,0-1-2.88-.75-4.64s.9-2,1.59-2.4a14.31,14.31,0,0,0,2.25-2.16c.06.72.83,1.51.78,3.17S23.49,26.23,23,27A23.74,23.74,0,0,0,21.71,29.48ZM17.42,39.61a8.51,8.51,0,0,0,.79-2.27c.14-1,0-3.7.76-4.91a5.71,5.71,0,0,1,2.73-2.7s-1,2.73-1.5,4.15S19.39,38.47,17.42,39.61Zm-.44.17c0-1.95-1.68-10.87-1.7-11.28s.92-.33,1.37-.36.61.28,1,2.76a29.69,29.69,0,0,1,.16,6.84A5.19,5.19,0,0,1,17,39.77Z"/><path class="n" d="M5.43,22.35A32.24,32.24,0,0,1,0,6.29C-.14,1.93,1-.1,2.8,0S13.29,1.42,13.24,6s-.71,10.9.2,14.55,5.67,16,3.14,20.05h-1S9.24,28.18,5.43,22.35Z"/><path class="o" d="M15.62,40.63h1c2.53-4-2.23-16.4-3.14-20.05s-.25-9.93-.2-14.55S4.57.11,2.8,0-.14,1.93,0,6.29A32.24,32.24,0,0,0,5.43,22.35C9.24,28.18,15.62,40.63,15.62,40.63ZM7.73,22.44a16.06,16.06,0,0,1,4.15,4.14c.73,1.41,3.33,7,3.5,11.41a11.36,11.36,0,0,1-.14,1.25s-3.11-6.61-3.88-8.16a100.26,100.26,0,0,0-6-9.38A5,5,0,0,1,7.73,22.44ZM3.4,18.25s1.19-.16,1.58-.74S5.83,16,6.56,16.33A8.27,8.27,0,0,1,9.2,19.74c.46,1.24,1.2,4.41,1.2,4.41a19.33,19.33,0,0,0-3.28-2.39c-1.24-.57-2-.51-2.19-.73S3.4,18.25,3.4,18.25Zm4.26-1.73a8.76,8.76,0,0,1-1.73-.79c-.22-.27-.8-3.71-1.44-5.12,0,0-.41-1-.11-1.49a2.09,2.09,0,0,1,2-.9c.86.13,1.82,0,1.92,1.19a21.81,21.81,0,0,0,.87,5c.48,1.08.49,1.46,0,1.66S8,16.72,7.67,16.53ZM2.18,2.81C2.87,3,3.71,4.68,3.8,5.65s-.05,3,.08,3.76c.27,1.63,1.27,3.22,1.49,5.4s-1,2.81-1.81,2.9S1.5,13.72,1,11.93A24.51,24.51,0,0,1,.47,4.59C.68,2.4,1.5,2.64,2.18,2.81ZM7.26,1.25S4.91,3.19,4.56,4.42s-.62.55-.74.06-1.44-2.74-3-2c0,0,.37-1.81,1.47-2.06S7.26,1.25,7.26,1.25Zm3.26,2.22c0,1.3-1.44,4.74-2.25,4.77S6.37,7.78,5.46,8s-1.27.81-1.35.63A9.53,9.53,0,0,1,4.75,4.7C5.39,3.47,7.27,1.47,8,1.53a2.42,2.42,0,0,1,1.12.33C9.89,2.21,10.49,2.17,10.52,3.47Zm-.24,12.27c-.52-.35-1.95-4.57-1.62-6.45s2.61-4,2.27-6.43a5.53,5.53,0,0,1,1.95,2.63,62.15,62.15,0,0,1-.35,9.42C12.33,15.78,10.8,16.08,10.28,15.73ZM13,26.08a3.59,3.59,0,0,1-2.35-2.73C10,21.19,9.39,18.9,8.49,17.75c0,0-.67-.65.3-1.17A5.2,5.2,0,0,1,12,16.13c.54.21.51,1.2,1,3.41s1.76,6.09,1.88,6.55S13.6,26.45,13,26.08ZM16.14,40.4A1.18,1.18,0,0,1,15.56,39a19.14,19.14,0,0,0-1.43-8,34.6,34.6,0,0,0-1.89-4.15s-.78-1.16.11-.74a6.46,6.46,0,0,0,2.28.62c.38,0,.82,1.13,1,1.66s2.3,8.16,1.27,11C16.87,39.35,16.4,40.46,16.14,40.4Z"/><path class="n" d="M38.44,33.86C43,31.44,49,29.68,51.76,31.5S50.44,37,50.44,37c-.33,1.67-4.34,6.55-6.25,6.5s-2.23,1-3.8,1.72a4.66,4.66,0,0,1-4.32-.16c-1.38-.7-8.56-.46-10.93-.4a5.87,5.87,0,0,1-4-1.71C24.15,42.28,33.93,36.28,38.44,33.86Z"/><path class="o" d="M21.1,43a5.87,5.87,0,0,0,4,1.71c2.37-.06,9.56-.3,10.93.4a4.66,4.66,0,0,0,4.32.16c1.58-.71,1.9-1.77,3.8-1.72s5.92-4.83,6.25-6.5c0,0,4.09-3.72,1.32-5.54S43,31.44,38.44,33.86,24.15,42.28,21.1,43Zm18.54-7.84c-1.13.73-5.08,3.58-5.92,3.93s-.94-.62-1-1.07.21-.58.21-.58c4.24-2.77,9.49-5.06,9.78-4.88S40.77,34.42,39.64,35.15Zm-1,1.1a1.48,1.48,0,0,1,1.9,0,14.09,14.09,0,0,0,3.77,1,12.12,12.12,0,0,0-5,3.25c-.67.59-1.45.34-3.14.74a11.87,11.87,0,0,0-3.44,1.81,1.58,1.58,0,0,1-1.63-.16c-.41-.18-2.48-.63-2.48-.63C30.35,41.66,38,36.74,38.68,36.25Zm11.08.41C48.4,37,42.91,37.48,41,36c0,0-.78-.47-.45-.9s3.54-3.07,5.27-3.55,5.46-1,6.42.77S51.12,36.34,49.76,36.66ZM39.45,41.37c-.34-.94,2.14-2.58,3.75-3.36s5-.84,6.13-.89.36.76.23,1c-2.2,3.43-4.32,5.14-6.34,5.17C41.84,43.28,39.79,42.31,39.45,41.37Zm-6.32,3a3.83,3.83,0,0,1-.45-.84c-.07-.28,2.41-1.86,4.16-2.19s2.22.21,2.78.74a14.26,14.26,0,0,0,2.77,1.44c-.66.28-1.17,1.27-2.76,1.76s-2.85-.26-3.69-.49A23.75,23.75,0,0,0,33.13,44.38Zm-11-.83a8.5,8.5,0,0,0,2.4,0c1-.19,3.52-1.16,4.9-.84a5.71,5.71,0,0,1,3.43,1.73s-2.91-.11-4.41-.1S23.87,45,22.17,43.55Zm-.3-.36C23.7,42.54,31.63,38.13,32,38s.6.77.78,1.18-.07.67-2.3,1.82a29.66,29.66,0,0,1-6.43,2.33A5.18,5.18,0,0,1,21.87,43.19Z"/><path class="n" d="M34.7,26.69A32.25,32.25,0,0,1,48.2,16.43c4.08-1.53,6.38-1.07,6.85.64s2,10.4-2.39,11.82-10.55,2.8-13.72,4.82-13.41,10.49-18,9.36l-.31-.91S30.39,32.15,34.7,26.69Z"/><path class="o" d="M20.62,42.16l.31.91c4.6,1.13,14.84-7.34,18-9.36s9.34-3.4,13.72-4.82S55.52,18.79,55,17.07s-2.76-2.17-6.85-.64A32.25,32.25,0,0,0,34.7,26.69C30.39,32.15,20.62,42.16,20.62,42.16ZM35.35,28.89a16.06,16.06,0,0,1-2.6,5.25c-1.1,1.14-5.6,5.39-9.7,7a11.4,11.4,0,0,1-1.23.26s5.28-5,6.5-6.28a100.16,100.16,0,0,0,7-8.64A5,5,0,0,1,35.35,28.89Zm2.59-5.43s.53,1.08,1.21,1.27,1.71.31,1.61,1.11a8.27,8.27,0,0,1-2.39,3.59c-1,.83-3.79,2.54-3.79,2.54a19.37,19.37,0,0,0,1.22-3.87c.15-1.35-.17-2.1,0-2.31S37.94,23.46,37.94,23.46Zm3,3.49a8.73,8.73,0,0,1,.2-1.89c.18-.3,3.26-1.94,4.39-3,0,0,.77-.69,1.38-.58a2.09,2.09,0,0,1,1.5,1.62c.15.85.59,1.73-.51,2.2a21.79,21.79,0,0,0-4.46,2.42c-.87.79-1.23.93-1.58.53S40.88,27.37,40.94,26.95Zm11.25-9.57c.05.7-1.29,2-2.17,2.44s-2.83.9-3.54,1.27c-1.46.78-2.65,2.23-4.65,3.13s-3-.1-3.33-.79,3.13-3.22,4.67-4.28A24.5,24.5,0,0,1,50,16.32C52.1,15.82,52.14,16.68,52.19,17.38Zm3.1,4.31s-2.6-1.6-3.86-1.54-.72-.41-.3-.69,2.14-2.24,1-3.52c0,0,1.83-.23,2.42.74S55.29,21.69,55.29,21.69Zm-1.06,3.8c-1.22.44-5,.14-5.24-.61s-.17-1.95-.67-2.74-1.17-.95-1-1.08a9.52,9.52,0,0,1,3.93-.65c1.37.21,3.87,1.36,4,2.09a2.43,2.43,0,0,1,0,1.17C55.21,24.49,55.45,25,54.23,25.49ZM42.52,29.17c.16-.61,3.71-3.3,5.6-3.59s4.62,1.2,6.82.11a5.54,5.54,0,0,1-1.87,2.69A62.07,62.07,0,0,1,44,31C43.13,31.13,42.36,29.78,42.52,29.17Zm-9,5.84a3.59,3.59,0,0,1,1.84-3.09c1.86-1.28,3.83-2.57,4.64-3.8,0,0,.41-.84,1.21-.09a5.21,5.21,0,0,1,1.43,2.86c0,.58-1,.87-2.91,2s-5.21,3.6-5.61,3.87S33.42,35.73,33.56,35ZM21,42.59a1.18,1.18,0,0,1,1.14-1,19.13,19.13,0,0,0,7.16-3.91,34.51,34.51,0,0,0,3.34-3.11s.85-1.1.74-.13a6.46,6.46,0,0,0,.14,2.36c.14.36-.8,1.14-1.27,1.45s-7,4.78-10,4.7C22.23,42.94,21,42.85,21,42.59Z"/><path class="e" d="M13.13,49.18a24.81,24.81,0,0,0-2.82.93C10.12,50.29,8,58.25,8,58.25l-.48,5.29h.72l.29-5h.27s1.6-7.37,2-7.82,2.16-.43,2.16-.43S13.5,50.16,13.13,49.18Z"/><path class="e" d="M9.22,46.81H4.32s-.77,1.49-.9,1.92-1.28,7.13-1.28,7.13l.27,4.63L3,60.35l-.24-4.44H3s1-6.76,1.22-7.1.19-1.28,1.46-1.28,3.22.24,3.22.24S9.93,47.51,9.22,46.81Z"/></svg>