<svg xmlns="http://www.w3.org/2000/svg" viewBox="0 0 220.25 101.08"><defs><style>.a,.b{fill:#fff;}.a{fill-rule:evenodd;}</style></defs><title>Ресурс 1</title><path class="a" d="M105.72,60.12c5.27-.14,9.48,0,14.75-.11,3.35,2.12,6.91,10.48,6.34,15-8.44,3.78-18.37,3.62-27.36.14.54-5.92,2.37-11.07,6.27-15Zm20.9,14.4c-.61-1.19-2.35-5.26-5-5.9a19.66,19.66,0,0,1,5,5.9Zm-27,.11a19.66,19.66,0,0,1,5-5.9c-2.66.64-4.41,4.71-5,5.9ZM113,60.52l-.35,7.87.35,7.05.36-7.05L113,60.52Zm-3.53,1-2.42,1-.75,1,3.17-2Zm7.37,0,3.17,2-.75-1Z"/><path class="a" d="M100.84,76.92a37.73,37.73,0,0,0,24.41,0L119.78,83c-3.17,3.54-9.6,3.44-12.93.41C104.67,81.45,102.84,79.09,100.84,76.92Z"/><path class="a" d="M90.21,43.24c2.32,5.12,2.8,11,1.42,17.72a103.76,103.76,0,0,1,8.44,7.9h0a21.56,21.56,0,0,1,5.32-9.13c5.5-.14,9.9,0,15.41-.11,2.17,1.37,4.43,5.26,5.68,9.13h0c1.42-2.08,5.55-4.65,8-7.76-1.7-9.23,0-13.37,1.48-17.84a33.45,33.45,0,0,0-7.12-4.95,15.63,15.63,0,0,1,.8,6.37,7.73,7.73,0,0,1,1.12,2.6l.16.13-.14,0q.06.26.1.54a2.17,2.17,0,0,1,.31-.57c-.19.8-.14,1.77-.3,2.63A7.77,7.77,0,1,1,115.62,47h0a7.77,7.77,0,0,1,13.67-2.95c-1.82-3.42-.53-3.44-4.43-6a36.76,36.76,0,0,1-15.76,7.52l-.49.08q-.71.11-1.41.19l-.34,0a15.85,15.85,0,0,1,2.64,1.59A21,21,0,0,0,106.42,46a38.85,38.85,0,0,1-5.55.14L100,46a22.37,22.37,0,0,1-3-.44c-.94.69-1.63,1.81-2.84,2.16.81-.65,1.44-1.62,2.31-2.29l-.19,0-.26-.07-.1,0-.2-.06-.37-.12a13,13,0,0,1-1.79-.74l-.36-.19A9.63,9.63,0,0,1,91,42.51q-.4.35-.79.72ZM128,37.82a25.61,25.61,0,0,1,1.6,6.7v0c-.42-2-1.27-5.4-4.56-6.55.75-.6,1.46-1.21,2.13-1.83A16.55,16.55,0,0,1,128,37.8l-.18-.05.19.08Zm.78.22a12,12,0,0,0-1.13-2.22l-.07-.1.25-.24.6-.59.19-.2,0,0,.42-.45.59-.67.14-.16c.6-.7,1.26-1.52,1.87-2.32,4.28,1.35,7.06,4.66,7.44,7.61-2.54-3-6-2.65-7.19-1.38,1.4,1.61,4.33,3.57,5.73,5.19A33.44,33.44,0,0,0,128.78,38ZM132,30.61c2.09-.38,3.81-.45,7.24,1a11.1,11.1,0,0,0-5.72-3.3h0A23.35,23.35,0,0,1,132,30.61Zm3.13-6,0,.05c-.32.75-.77,1.43-1.06,2l-.19.34a43.93,43.93,0,0,1-4.67,6.07l-.33.34-.07.07-.1.1-.46.45-.1.1-.85.8-.38.34-.34.3c-5.06,4.37-11.94,8.15-19,8.9a32.08,32.08,0,0,1-10.29-.31l-.54-.13-.37-.1-.17-.05-.45-.14-.52-.18-.15-.06q-.5-.2-1-.43a9.92,9.92,0,0,1-2.63-1.85L91.24,41a8.62,8.62,0,0,1-.89-1.13,12,12,0,0,1-1.47-3.13q-.1-.33-.18-.67t-.11-.5A10.71,10.71,0,0,1,88.5,32l0-.22,0-.2a10,10,0,0,1,6.41-6,88.74,88.74,0,0,0-4-15.36c-.72-2-.42-2.62,1-3.71C97.72,2,117.66-1.87,124.81,1c1.68.67,1.77,1.26,1.59,3.43-.46,5.4-.59,13.8,1.26,19.38,4.3.2,4.21-1.3,7.42,0a2.74,2.74,0,0,1,.07.89ZM88.93,39.27a12,12,0,0,0,.72,1.44q.16.27.33.53a8.67,8.67,0,0,0,.57.77l.16.19c-3.17.37-6.05-.62-9.29,2.93,2.88-4.34,5.08-4.84,7.51-5.86Zm15.39-2.75c-3.77.6-8.41-.63-9-5q-.06-.19-.1-.38l-.06-.28a6.25,6.25,0,0,1-.06-2l0-.12,0-.12,0,.13,0,.12a5.94,5.94,0,0,0-.17,2.33q0,.15,0,.29T95,32c1.19,4.84,6.06,5.24,10.38,4.79l.78-.1.27,0c9.09-1.65,12.37-7.94,12.08-7.54-1.63,2.19-6,6.55-14.2,7.4Zm1.08-23a28.63,28.63,0,0,1-7,.2l-.36,0-.25,0-.11,0-.3-.06-.34-.08-.1,0-.65-.19a6.09,6.09,0,0,1-1.71-.85l-.15-.11a4.11,4.11,0,0,1-.57-.55A4.79,4.79,0,0,1,93,10.23q-.06-.17-.1-.34t-.06-.25a4.16,4.16,0,0,1,.06-1.81l0-.11,0-.11-.06.12-.05.11A4.2,4.2,0,0,0,92.5,10q0,.13,0,.26a4.35,4.35,0,0,0,.09.44,4.66,4.66,0,0,0,.77,1.58l.21.26a4,4,0,0,0,.36.37,5.4,5.4,0,0,0,1.75,1l.24.09a9.58,9.58,0,0,0,1.18.32l.25,0,.14,0h.07l.17,0,.2,0a18.5,18.5,0,0,0,2.3.16h.55a36.56,36.56,0,0,0,4.3-.33l1-.15.34-.06A33.06,33.06,0,0,0,119,8.52l.15-.11.25-.18.42-.32L120,7.8h0l.3-.25.42-.36.1-.09a23.64,23.64,0,0,0,2.82-2.86c.1-.14.23-.3.37-.48a3.43,3.43,0,0,0,.74-1.31v0l0,0c-.25.39-.57.76-.79,1.06l-.14.18A29.37,29.37,0,0,1,120.45,7l-.23.19,0,0-.07.05-.33.25-.07.05L119.1,8l-.27.19-.24.17a32.11,32.11,0,0,1-13.18,5.22ZM120.89,54a10.14,10.14,0,0,0,8.43-1.84,7,7,0,0,1-12.66-5.67,15.46,15.46,0,0,1,9.09-2q-1.12,1.18-2.35,2.25A9,9,0,0,0,118,48.54a11.51,11.51,0,0,1,3.4-1.42c-.12.09-.19.19-.19.5a1,1,0,0,0,.3.63l-.63.46-.53-.27q.24.16.49.3l-.65.44a4.57,4.57,0,0,1-1.25-1.06,3.81,3.81,0,0,0,1.21,1.09,32,32,0,0,1-2.81,1.67,7.31,7.31,0,0,0,3.59-1.32l.11,0c.39.12.67-.08,1-.12-.36-.07-.64.16-1,.05h0l.61-.43a5.79,5.79,0,0,0,3,.28c.67-.11,1-.69,1.42-1-.61.16-.87.81-1.48.91a5.84,5.84,0,0,1-2.86-.24l.45-.36a1.68,1.68,0,0,0,.63.13,1.39,1.39,0,0,0,1.54-1.17,1,1,0,0,0-.3-.7,9.36,9.36,0,0,1,1,.12c.87.16,1.31,1,2,1.46a24.47,24.47,0,0,1-5.07,3.55c2-.11,4-1.77,5.4-3.39l.12,0-.09-.07c.81-.92,1.47-1.82,1.91-2.41.16.16.33.31.51.45a7,7,0,0,1-.11,4.76c-2.05,1.91-4.8,2.87-8.75,2.54Zm8.34-7.77a26.15,26.15,0,0,1-2.13,2.2c-.59-.6-1.09-1.38-2-1.55q-.48-.09-1-.12c.71-.78,1.34-1.57,1.87-2.25q.47.05.94.14a4.74,4.74,0,0,1,2.32,1.58Zm.11-.51a4.13,4.13,0,0,0-2.27-1.38l-.87-.13.81-1.09a7,7,0,0,1,2.34,2.6ZM126,44.16a14.39,14.39,0,0,0-9.31,2.14A7,7,0,0,1,127,43.08q-.47.55-1,1.08Zm-19.84,4.42a3.91,3.91,0,0,1-2.1,1.47c-.39.12-.67-.08-1-.12.36-.07.64.16,1,.05a4.27,4.27,0,0,0,2.09-1.41Zm-1.41.31a5.76,5.76,0,0,1-4.24.93c-.67-.11-1-.69-1.42-1,.61.16.87.81,1.48.91a6.24,6.24,0,0,0,4.18-.82Zm2.36.11a11.52,11.52,0,0,0-3.4-1.42c.12.09.19.19.19.5a1.52,1.52,0,0,1-1.54,1.17,1.39,1.39,0,0,1-1.54-1.17,1,1,0,0,1,.3-.7,9.33,9.33,0,0,0-1,.12c-1,.18-1.45,1.36-2.47,1.66.75-.6,1.25-1.65,2.37-1.85A9,9,0,0,1,107.13,49Zm-2.91,5.43A10,10,0,0,1,95,51.85c-1.07-1.05-.72-2.84-1-4.17.87,1.11.33,3,1.3,4,2.08,2.05,4.88,3.11,9,2.77Zm18.92,5.35a32.47,32.47,0,0,0,9.69-8.33c-1,4.4-7.74,7.32-9.69,8.33ZM102.9,61c-2-1-8.66-3.93-9.69-8.33A32.46,32.46,0,0,0,102.9,61Z"/><path class="a" d="M90.57,44.67c-9.38,2.19-6.38,14.35,1,15.61a29.86,29.86,0,0,0-1-15.61Zm-.34,1.1a22.87,22.87,0,0,1,1.32,7,32.26,32.26,0,0,1-.47,6.44,7.08,7.08,0,0,1-4.71-3.53,8.07,8.07,0,0,1-1.06-3.43,5.95,5.95,0,0,1,4.93-6.45Zm-4.5,2.93a6.58,6.58,0,0,1,4.55-3.23l.12,0,0,.12a23.11,23.11,0,0,1,1.38,7.18,32.76,32.76,0,0,1-.5,6.63l0,.14-.14,0a7.32,7.32,0,0,1-5-3.69A8.35,8.35,0,0,1,85,52.23,6.54,6.54,0,0,1,85.73,48.7Z"/><path class="a" d="M135.84,44.44c9.38,2.19,6.38,14.35-1,15.61a29.87,29.87,0,0,1,1-15.61Zm.29.8-.12,0,0,.12a23.1,23.1,0,0,0-1.38,7.18,32.76,32.76,0,0,0,.5,6.63l0,.14.14,0a7.32,7.32,0,0,0,5-3.69,8.35,8.35,0,0,0,1.1-3.55,6.23,6.23,0,0,0-5.26-6.76Zm4.31,3.36a6.27,6.27,0,0,0-4.25-3.06,22.86,22.86,0,0,0-1.32,7,32.28,32.28,0,0,0,.47,6.44A7.08,7.08,0,0,0,140,55.42,8.08,8.08,0,0,0,141.11,52,6.27,6.27,0,0,0,140.44,48.6Z"/><path class="a" d="M100.61,87.41V96c1-.42,2-.23,3-.57,3.06-1.08,6-2.33,8.9-2.5l-.08-2.18c-3.67-.31-5.13-1.34-8.61-2.4C103,88.08,101,87.66,100.61,87.41Z"/><rect class="b" x="112.65" y="90.28" width="1.09" height="3.43" rx="0.55" ry="0.55"/><path class="a" d="M114.59,90.28h0a.55.55,0,0,1,.55.55v2.34a.55.55,0,0,1-.55.55h0a.55.55,0,0,1-.55-.55V90.83A.55.55,0,0,1,114.59,90.28Z"/><path class="a" d="M127.26,87.41V96c-1-.42-2-.23-3-.57-3.06-1.08-6-2.33-8.9-2.5l.08-2.18c3.67-.31,5.13-1.34,8.61-2.4C124.88,88.08,126.83,87.66,127.26,87.41Z"/><path class="a" d="M182.8,27c2.86,1.21,5,2.37,7,5.57A8.94,8.94,0,0,0,182.8,27Z"/><path class="a" d="M185.43,60.14c5.1-.13,9.17,0,14.27-.1,3.24,2.05,6.69,10.14,6.13,14.48-8.17,3.66-17.78,3.5-26.47.13.52-5.73,2.29-10.71,6.07-14.51Zm7.05.39-.34,7.62.34,6.83.34-6.83-.34-7.62Zm-3.42,1-2.34,1-.72,1,3.06-2Zm7.13,0,3.06,2-.72-1Z"/><path class="a" d="M180.7,76.4a36.51,36.51,0,0,0,23.62,0L199,82.31c-3.06,3.43-9.29,3.33-12.51.4C184.41,80.78,182.64,78.5,180.7,76.4Z"/><path class="a" d="M170.77,45.19c-9.07,2.12-6.17,13.88,1,15.1a28.89,28.89,0,0,0-1-15.1Zm-.33,1.06A22.12,22.12,0,0,1,171.71,53a31.24,31.24,0,0,1-.46,6.23,6.85,6.85,0,0,1-4.55-3.42,7.81,7.81,0,0,1-1-3.32,5.75,5.75,0,0,1,4.77-6.24Zm-4.35,2.84A6.36,6.36,0,0,1,170.49,46l.12,0,0,.11A22.36,22.36,0,0,1,172,53a31.69,31.69,0,0,1-.48,6.41l0,.13-.13,0a7.08,7.08,0,0,1-4.87-3.57,8.08,8.08,0,0,1-1.06-3.44A6.33,6.33,0,0,1,166.08,49.09Z"/><path class="a" d="M184.1,34.18h0ZM174,45.72c.59-4.48,1.39-7.94,5.12-11.95-5.62,4.21-5.21,10-5.13,12v0c1.68-4.21,4.06-7.18,8.68-10.15A14.3,14.3,0,0,0,174,45.72Zm9-3.18a14.3,14.3,0,0,1,8.67-10.1c-4.62,3-7,5.95-8.68,10.15v0c-.08-2-.49-7.76,5.13-12-3.74,4-4.53,7.47-5.12,12Zm14-.95a11.06,11.06,0,0,0-6.71-7.81A15.55,15.55,0,0,1,197,41.63v0a10.1,10.1,0,0,0-4-9.26c2.89,3.11,3.51,5.78,4,9.25Zm-23.92-.2-1.13.49c-3.49,1-6.54-1-10,3.72,3.55-6.6,6-5.76,9.26-8.26-1.94-1.46-4.25-1.6-5.14,0,0-1.27,5.18-10.41,9.75-9.19-.54-2.21-3.35-2.39-6.54-2.2,5.23-1.89,8.54-1.27,12.81.62,0-1.57-2.35-5.4-7.51-4.82,7.92-3.28,10.33-.82,14.25,2.13,3.42-2.75,2.95-6.58,8.33-8.33-2.87.94-1.21,5.55-3,7.85,4.18-1.87,16.93-2.19,23.69,6.06-3.91-2.08-5.52-1.61-8.13-1a11.56,11.56,0,0,1,8,9.37c-2.46-3.58-5.84-3.17-7-1.65,1.35,1.93,4.19,4.27,5.54,6.2a30.21,30.21,0,0,0-9.61-5.7,13,13,0,0,0-3.27-3.51c3.74,4,4.53,7.47,5.12,11.95a14.3,14.3,0,0,0-8.67-10.1c4.62,3,7,5.95,8.68,10.15v0a14.66,14.66,0,0,0-1.24-7.36c2.59,1.85,5,3.87,7.36,5.88-1.4,4.33-3.08,8.33-1.43,17.26-1,1.32-2.73,1.58-3.11,4.72-2-.34-3.32.89-4.62,2.79h0c-1.22-3.74-3.4-7.51-5.5-8.84-5.33.14-9.58,0-14.91.11A20.86,20.86,0,0,0,180,68.59h0c-1-2.56-2.47-3.12-5-3.23-.3-2.33-1.08-3.52-3.17-4.41,1.33-6.54.87-12.19-1.38-17.15q1.33-1.3,2.65-2.42ZM182.7,61a31.41,31.41,0,0,1-9.38-8.06c1,4.26,7.49,7.08,9.38,8.06Zm19.58-1.16c1.89-1,8.38-3.8,9.38-8.06a31.42,31.42,0,0,1-9.38,8.06ZM189.46,49.76v.1c2.52.86,3.88.6,6.18,0v-.09c.16,2.83,3.55,5.09,7.71,5.09s7.71-2.37,7.71-5.3c0,0,0,0,0-.07h0V47.66H195.63v.91h-6.16v-.91H174v1.83h0s0,0,0,.07c0,2.93,3.45,5.3,7.71,5.3s7.55-2.27,7.71-5.1Zm19.32-18.38c3,.82,5.27,1.67,7.65,4.58a8.94,8.94,0,0,0-7.65-4.58Zm-3.42-2.9c3.65-1,6.58-1.64,11-.61a13.3,13.3,0,0,0-11,.61Zm-38.52,7.41a8.94,8.94,0,0,1,7.75-4.42c-3.71.65-5.57,2.21-7.75,4.42Zm24.56-8.22c3.09-.32,5.52-.34,8.79,1.52a8.94,8.94,0,0,0-8.79-1.52ZM191,27.6c3.71-2.61,6.8-4.37,12.29-4.34C196.36,22,192.4,26.19,191,27.6Zm-8.1-5.84c2.85,1.21,5,2.37,7,5.57A8.94,8.94,0,0,0,182.88,21.77Z"/><path class="a" d="M214.57,45c9.07,2.12,6.17,13.88-1,15.1a28.9,28.9,0,0,1,1-15.1Zm.28.77-.11,0,0,.11a22.37,22.37,0,0,0-1.33,6.95,31.7,31.7,0,0,0,.49,6.41l0,.13.13,0a7.08,7.08,0,0,0,4.87-3.57,8.08,8.08,0,0,0,1.06-3.44,6,6,0,0,0-5.09-6.54ZM219,49a6.06,6.06,0,0,0-4.12-3,22.12,22.12,0,0,0-1.28,6.75,31.24,31.24,0,0,0,.46,6.23,6.85,6.85,0,0,0,4.55-3.42,7.81,7.81,0,0,0,1-3.32A6.07,6.07,0,0,0,219,49Z"/><path class="a" d="M187.36,92.28a30.33,30.33,0,0,1,2.21,4.37c1.9,5.26,2.6,4.46,4,4.28.88-.11.88-.85,2.51-4,.21-.42,2-4,2.24-4.56L196.64,89,196,89H189.2Z"/><path class="a" d="M178.92,75.29c-1.69,2.14,4.91,9.14,11.06,13-4.07-.6-4.25,7.55-6.37,11.32-1-5.84-9.78-11.2-10.35-16.63C174.94,78.73,176.88,76.59,178.92,75.29Z"/><path class="a" d="M206.52,74.94c1.69,2.14-4.91,9.14-11.06,13,4.07-.6,4.25,7.55,6.37,11.32,1-5.84,9.78-11.2,10.35-16.63C210.5,78.38,208.56,76.24,206.52,74.94Z"/><path class="a" d="M49.56,65.42c-.69.6-3,.65-3.68,1.2-1.42,1.13,1,5.58.17,6.61a7.94,7.94,0,0,1-.89,1c.4-4.51-3.07-12.55-6.33-14.61-5.24.14-9.43,0-14.67.11-3.79,3.81-5.62,8.8-6.2,14.52a3.59,3.59,0,0,1-1.14-.91c-1.29-1.7,3.13-4.54,0-6.85-.74-.55-2.77-.74-3.46-1.39s-1.17-2.67-1.65-3c-.87-.55-.84-1.18-1.72-.91-.9,2.91,2.26,5.73,3,9.05.62,2.67-1.34,3.45-.79,6.39.32,1.74,1.26,4.56,2.74,5.66l.77-1.49c3.5.42.84,4,2.66,6.11a12.63,12.63,0,0,0,7.47,3.58c-.49-.66-1.84-1.13-1.77-2a2,2,0,0,1,1.34-.24c3.08.08,6,3.14,6,3.13s.11.08.18.12c.72-1.38,2.58-2.54,4.78-3.07,1.94-.46,2.1-.08,2.37.06.06.82-1.29,1.3-1.77,2a12.63,12.63,0,0,0,7.47-3.58c1.83-2.06-.85-5.69,2.77-6.13l.68,1.5c1.44-1.09,2.48-4.08,2.75-5.83.43-2.84-1.43-3.58-.82-6.21.77-3.32,6.46-6.56,3-9.28-2,1.79-1.27,2.68-3.33,4.47ZM34.91,84.68c3.74-2,5.92-5.07,8.7-8.48-2,3.41-4,6.38-6.8,7.76a12.36,12.36,0,0,1-1.91.71ZM29.12,85c-.57-.24-1.21-.48-2.31-1a19.4,19.4,0,0,1-7.47-7.55A33.94,33.94,0,0,0,29.12,85Zm16-10.52-1.57,1.15-.1,0,.15-.15-.23.17a62.21,62.21,0,0,1-24.07,0l-1.38-1.06a58.38,58.38,0,0,0,27.21-.08ZM45,74a19.56,19.56,0,0,0-5-5.86c2.65.63,4.38,4.69,5,5.86Zm-26.86.11c.6-1.18,2.34-5.23,5-5.86a19.56,19.56,0,0,0-5,5.86Zm13.33-14,.35,7.83-.35,7-.34-7,.34-7.83Zm-3.51,1-3.15,2,.74-1,2.41-1Zm7.33,0,2.41,1,.74,1-3.15-2ZM47.84,79.46A32.29,32.29,0,0,0,45.93,66.9C49.1,70.09,48,77.28,47.84,79.46ZM14.6,80.58C14.42,78.4,13.33,71.2,16.5,68A32.3,32.3,0,0,0,14.6,80.58Zm24,7.07a16.91,16.91,0,0,0,5.68-6c.76,2.36-4.28,5.15-5.68,6ZM24.34,88c-1.4-.89-6.43-3.69-5.68-6A16.91,16.91,0,0,0,24.34,88Z"/><path class="a" d="M9.1,44.34c-9.32,2.18-6.35,14.27,1,15.52a29.7,29.7,0,0,0-1-15.52Zm-.34,1.09a22.73,22.73,0,0,1,1.31,6.94,32.11,32.11,0,0,1-.47,6.4,7,7,0,0,1-4.68-3.51,8,8,0,0,1-1.06-3.42,6.23,6.23,0,0,1,.67-3.37,6.23,6.23,0,0,1,4.23-3ZM4.28,48.35a6.54,6.54,0,0,1,4.53-3.21l.12,0,0,.11a23,23,0,0,1,1.37,7.14A32.57,32.57,0,0,1,9.84,59l0,.14-.14,0a7.28,7.28,0,0,1-5-3.67,8.31,8.31,0,0,1-1.09-3.53A6.51,6.51,0,0,1,4.28,48.35Z"/><path class="a" d="M22.8,33h0ZM12.44,44.88c.61-4.6,1.43-8.16,5.27-12.28-5.78,4.33-5.36,10.24-5.27,12.31v0c1.73-4.33,4.17-7.38,8.92-10.44a14.7,14.7,0,0,0-8.91,10.38Zm9.21-3.27c.61-4.6,1.43-8.16,5.27-12.28-5.78,4.33-5.36,10.24-5.27,12.31v0c1.73-4.33,4.17-7.38,8.92-10.44a14.7,14.7,0,0,0-8.91,10.38Zm14.4-1c-.47-3.56-1.1-6.31-4.07-9.5a10.38,10.38,0,0,1,4.08,9.52v0a16,16,0,0,0-6.9-8.07,11.37,11.37,0,0,1,6.89,8Zm-24.59-.21q-1.35,1.16-2.72,2.49c2.31,5.1,2.78,10.9,1.42,17.63,2.15.91,2.95,2.14,3.26,4.53,2.6.12,4.06.69,5.13,3.32h0a21.45,21.45,0,0,1,5.29-9.08c5.47-.14,9.85,0,15.32-.11,2.16,1.37,4.4,5.23,5.65,9.08h0c1.34-2,2.64-3.21,4.75-2.87.39-3.23,2.13-3.5,3.2-4.85-1.69-9.18,0-13.3,1.47-17.74-2.46-2.06-4.91-4.14-7.57-6a15.07,15.07,0,0,1,1.28,7.57v0C46.22,40.06,43.78,37,39,33.94a14.7,14.7,0,0,1,8.91,10.38c-.61-4.6-1.43-8.16-5.27-12.28A13.34,13.34,0,0,1,46,35.64a31.06,31.06,0,0,1,9.88,5.86c-1.39-2-4.31-4.39-5.7-6.37,1.14-1.56,4.62-2,7.15,1.7a11.89,11.89,0,0,0-8.21-9.63c2.68-.66,4.33-1.14,8.35,1C50.56,19.71,37.46,20,33.16,22c1.8-2.37.09-7.1,3-8.07-5.53,1.81-5,5.73-8.56,8.56-4-3-6.51-5.57-14.65-2.19,5.3-.6,7.73,3.34,7.72,5-4.39-1.95-7.79-2.58-13.17-.64,3.28-.19,6.17,0,6.72,2.27-4.7-1.25-10,8.15-10,9.45.91-1.68,3.29-1.53,5.28,0C6.19,38.83,3.65,38,0,44.76c3.57-4.85,6.71-2.81,10.3-3.82l1.16-.51ZM34,46.7A14.45,14.45,0,0,1,45.4,44c1.81.32,2.62,2,3.82,3-1.64-.48-2.32-2.37-4-2.67-3.53-.63-7.16,0-11.23,2.42Zm4.7,1.38a6.21,6.21,0,0,0,4.16.82c.61-.1.87-.74,1.47-.91-.45.33-.74.9-1.41,1a5.73,5.73,0,0,1-4.22-.92Zm1-1.3a11.44,11.44,0,0,0-3.38,1.42,8.93,8.93,0,0,1,7-1.68c1.12.2,1.62,1.24,2.36,1.84-1-.3-1.44-1.47-2.46-1.65a9.23,9.23,0,0,0-1-.12,1,1,0,0,1,.3.69,1.39,1.39,0,0,1-1.53,1.16,1.52,1.52,0,0,1-1.53-1.16c0-.31.07-.41.19-.49Zm-2.45,1a4.24,4.24,0,0,0,2.08,1.4c.35.1.62-.13,1-.05-.31,0-.59.23-1,.11a3.89,3.89,0,0,1-2.09-1.46Zm-9.38-.6c-4.07-2.46-7.7-3-11.23-2.42-1.65.3-2.34,2.19-4,2.67,1.2-1,2-2.65,3.82-3a14.45,14.45,0,0,1,11.39,2.72Zm-4.7,1.38a5.73,5.73,0,0,1-4.22.92c-.67-.11-1-.68-1.41-1,.61.16.86.8,1.47.91a6.21,6.21,0,0,0,4.16-.82Zm1.41-.31a3.89,3.89,0,0,1-2.09,1.46c-.38.11-.67-.07-1-.11.36-.07.63.16,1,.05a4.24,4.24,0,0,0,2.08-1.4Zm-2.45-1c.12.09.19.19.19.49a1.52,1.52,0,0,1-1.53,1.16,1.39,1.39,0,0,1-1.53-1.16,1,1,0,0,1,.3-.69,9.26,9.26,0,0,0-1,.12c-1,.18-1.44,1.35-2.46,1.65.74-.59,1.24-1.64,2.36-1.84a8.93,8.93,0,0,1,7,1.68,11.45,11.45,0,0,0-3.38-1.42Zm-.82,13.33c-1.94-1-8.62-3.91-9.64-8.29a32.29,32.29,0,0,0,9.64,8.29Zm20.13-1.2a32.29,32.29,0,0,0,9.64-8.29c-1,4.38-7.7,7.28-9.64,8.29Zm-2.24-5.78c4.08.34,6.87-.71,8.94-2.75,1-1,.43-2.85,1.29-4-.31,1.33,0,3.11-1,4.15a10,10,0,0,1-9.21,2.56ZM22.68,54a10,10,0,0,1-9.21-2.56c-1.06-1-.72-2.82-1-4.15.86,1.11.32,3,1.29,4,2.07,2,4.86,3.1,8.94,2.75ZM30.3,26.33a9.19,9.19,0,0,1,9,1.56C36,26,33.47,26,30.3,26.33Zm17.86,3.81A9.19,9.19,0,0,1,56,34.85c-2.45-3-4.79-3.87-7.87-4.71Zm-3.52-3a13.66,13.66,0,0,1,11.3-.63c-4.53-1.06-7.55-.44-11.3.63Zm-14.77-.9c1.46-1.46,5.53-5.79,12.64-4.46-5.65,0-8.83,1.78-12.64,4.46Zm-8.33-6A9.19,9.19,0,0,1,28.71,26c-2-3.3-4.22-4.48-7.16-5.73ZM5.06,34.78a9.19,9.19,0,0,1,8-4.54C9.21,30.9,7.3,32.51,5.06,34.78Z"/><path class="a" d="M54.12,44.11c9.32,2.18,6.35,14.27-1,15.52a29.7,29.7,0,0,1,1-15.52Zm.29.8-.12,0,0,.11a23,23,0,0,0-1.37,7.14,32.57,32.57,0,0,0,.5,6.59l0,.14.14,0a7.28,7.28,0,0,0,5-3.67,8.31,8.31,0,0,0,1.09-3.53,6.2,6.2,0,0,0-5.23-6.73Zm4.29,3.34a6.23,6.23,0,0,0-4.23-3,22.75,22.75,0,0,0-1.31,6.94,32.13,32.13,0,0,0,.47,6.4A7,7,0,0,0,58.31,55a8,8,0,0,0,1.06-3.42A6.23,6.23,0,0,0,58.7,48.25Z"/><polygon class="a" points="16.24 89.01 9.97 93.56 19.97 91.65 16.24 89.01"/><polygon class="a" points="13.39 83.09 6.83 85.04 14.92 86.02 13.39 83.09"/><polygon class="a" points="22.79 92.56 17.97 99.29 27.38 94.42 22.79 92.56"/><polygon class="a" points="46.8 89.01 53.08 93.56 43.07 91.65 46.8 89.01"/><polygon class="a" points="49.66 83.09 56.21 85.04 48.12 86.02 49.66 83.09"/><polygon class="a" points="40.25 92.56 45.07 99.29 35.66 94.42 40.25 92.56"/></svg>